<svg width="177" height="176" viewBox="0 0 177 176" fill="none" xmlns="http://www.w3.org/2000/svg">
<path d="M88.4916 135.687L0 65.8771C0 65.8771 82.5922 0 88.4916 0C93.4078 0 176.983 65.8771 176.983 65.8771L88.4916 135.687Z" fill="#00A6AC"/>
<rect x="21.6309" y="9.83301" width="135.687" height="139.62" rx="5" fill="#F2F2F2"/>
<path d="M21.6309 14.833C21.6309 12.0716 23.8694 9.83301 26.6309 9.83301H152.318C155.079 9.83301 157.318 12.0716 157.318 14.833V33.4308H21.6309V14.833Z" fill="#FF5E01"/>
<path d="M40.28 61C40.28 58.3932 42.3932 56.28 45 56.28H135C137.607 56.28 139.72 58.3932 139.72 61V71C139.72 73.6068 137.607 75.72 135 75.72H45C42.3932 75.72 40.28 73.6068 40.28 71V61Z" stroke="#FF5E01" stroke-width="0.56"/>
<path d="M55.0283 59.9619L56.3529 64.0383H60.639L57.1714 66.5577L58.496 70.6341L55.0283 68.1147L51.5607 70.6341L52.8852 66.5577L49.4176 64.0383H53.7038L55.0283 59.9619Z" fill="#FF5E01"/>
<path d="M72.7256 59.9619L74.0501 64.0383H78.3363L74.8687 66.5577L76.1932 70.6341L72.7256 68.1147L69.258 70.6341L70.5825 66.5577L67.1149 64.0383H71.4011L72.7256 59.9619Z" fill="#FF5E01"/>
<path d="M90.4248 59.9619L91.7493 64.0383H96.0355L92.5679 66.5577L93.8924 70.6341L90.4248 68.1147L86.9572 70.6341L88.2817 66.5577L84.8141 64.0383H89.1003L90.4248 59.9619Z" fill="#FF5E01"/>
<path d="M108.122 59.9619L109.447 64.0383H113.733L110.265 66.5577L111.59 70.6341L108.122 68.1147L104.654 70.6341L105.979 66.5577L102.511 64.0383H106.798L108.122 59.9619Z" fill="#FF5E01"/>
<path d="M125.821 59.9619L127.146 64.0383H131.432L127.964 66.5577L129.289 70.6341L125.821 68.1147L122.354 70.6341L123.678 66.5577L120.211 64.0383H124.497L125.821 59.9619Z" fill="#FF5E01"/>
<path d="M71.7765 121.922L0 65.877V176L71.7765 121.922Z" fill="#29B6BB"/>
<path d="M107.172 120.938L176.982 64.8936V176L107.172 120.938Z" fill="white"/>
<path d="M107.172 120.938L176.982 64.8936V176L107.172 120.938Z" fill="#29B6BB"/>
<path d="M176.983 176H0L89.4749 106.189L176.983 176Z" fill="#00A6AC"/>
</svg>
