<svg width="28" height="28" viewBox="0 0 28 28" fill="none" xmlns="http://www.w3.org/2000/svg">
<g clipPath="url(#clip0_1_6395)">
<path d="M10.5002 25.6663C11.1445 25.6663 11.6668 25.144 11.6668 24.4997C11.6668 23.8553 11.1445 23.333 10.5002 23.333C9.85583 23.333 9.3335 23.8553 9.3335 24.4997C9.3335 25.144 9.85583 25.6663 10.5002 25.6663Z" stroke="#161616" stroke-width="3" stroke-linecap="round" stroke-linejoin="round"/>
<path d="M23.3332 25.6663C23.9775 25.6663 24.4998 25.144 24.4998 24.4997C24.4998 23.8553 23.9775 23.333 23.3332 23.333C22.6888 23.333 22.1665 23.8553 22.1665 24.4997C22.1665 25.144 22.6888 25.6663 23.3332 25.6663Z" stroke="#161616" stroke-width="3" stroke-linecap="round" stroke-linejoin="round"/>
<path d="M1.1665 1.16797H5.83317L8.95984 16.7896C9.06652 17.3268 9.35873 17.8093 9.78531 18.1527C10.2119 18.496 10.7457 18.6785 11.2932 18.668H22.6332C23.1807 18.6785 23.7145 18.496 24.141 18.1527C24.5676 17.8093 24.8598 17.3268 24.9665 16.7896L26.8332 7.0013H6.99984" stroke="#161616" stroke-width="3" stroke-linecap="round" stroke-linejoin="round"/>
</g>
<defs>
<clipPath id="clip0_1_6395">
<rect width="28" height="28" fill="white"/>
</clipPath>
</defs>
</svg>
