<svg width="25" height="26" viewBox="0 0 25 26" fill="none" xmlns="http://www.w3.org/2000/svg">
<path fillRule="evenodd" clipRule="evenodd" d="M11.5625 0H10C5.28625 0 2.92875 -1.49012e-07 1.465 1.465C-1.49012e-07 2.92875 0 5.28625 0 10V12.5C0 17.2137 -1.49012e-07 19.5712 1.465 21.035C1.84846 21.4163 2.30746 21.713 2.8125 21.9062V25C2.8125 25.2486 2.91127 25.4871 3.08709 25.6629C3.2629 25.8387 3.50136 25.9375 3.75 25.9375C3.99864 25.9375 4.2371 25.8387 4.41291 25.6629C4.58873 25.4871 4.6875 25.2486 4.6875 25V22.3388C6.025 22.5 7.7425 22.5 10 22.5H11.5625V0ZM8.75 7.8125C8.99864 7.8125 9.2371 7.91127 9.41291 8.08709C9.58873 8.2629 9.6875 8.50136 9.6875 8.75V13.75C9.6875 13.9986 9.58873 14.2371 9.41291 14.4129C9.2371 14.5887 8.99864 14.6875 8.75 14.6875C8.50136 14.6875 8.2629 14.5887 8.08709 14.4129C7.91127 14.2371 7.8125 13.9986 7.8125 13.75V8.75C7.8125 8.50136 7.91127 8.2629 8.08709 8.08709C8.2629 7.91127 8.50136 7.8125 8.75 7.8125ZM13.4375 22.5H15C17.2575 22.5 18.975 22.5 20.3125 22.3388V25C20.3125 25.2486 20.4113 25.4871 20.5871 25.6629C20.7629 25.8387 21.0014 25.9375 21.25 25.9375C21.4986 25.9375 21.7371 25.8387 21.9129 25.6629C22.0887 25.4871 22.1875 25.2486 22.1875 25V21.9062C22.6925 21.713 23.1515 21.4163 23.535 21.035C25 19.5712 25 17.2137 25 12.5V10C25 5.28625 25 2.92875 23.535 1.465C22.0712 -1.49012e-07 19.7137 0 15 0H13.4375V22.5ZM16.25 7.8125C16.4986 7.8125 16.7371 7.91127 16.9129 8.08709C17.0887 8.2629 17.1875 8.50136 17.1875 8.75V13.75C17.1875 13.9986 17.0887 14.2371 16.9129 14.4129C16.7371 14.5887 16.4986 14.6875 16.25 14.6875C16.0014 14.6875 15.7629 14.5887 15.5871 14.4129C15.4113 14.2371 15.3125 13.9986 15.3125 13.75V8.75C15.3125 8.50136 15.4113 8.2629 15.5871 8.08709C15.7629 7.91127 16.0014 7.8125 16.25 7.8125Z" fill="#161616"/>
</svg>
