<svg width="38" height="21" viewBox="0 0 38 21" fill="none" xmlns="http://www.w3.org/2000/svg">
<g id="Group 37324">
<path id="Vector" d="M38 10.5028C38 16.2936 33.3817 21 27.7116 21C24.2767 21 21.1102 19.2728 19.2092 16.4166L19.3625 16.3048C20.0309 15.8129 20.7486 15.3098 21.5046 14.7844C22.8906 16.8749 25.197 18.1437 27.7116 18.1437C31.8423 18.1437 35.206 14.7173 35.206 10.4972C35.206 6.27708 31.8478 2.85068 27.7116 2.85068C25.3997 2.85068 23.1207 4.51637 19.9707 6.82486L19.7132 7.01491C18.5572 7.85893 17.2862 8.73649 15.9386 9.66436C15.5551 9.92707 15.1606 10.201 14.7607 10.4748L15.5606 11.6487L10 12.1126L12.3831 6.9646L13.1665 8.12164C13.5774 7.84216 13.9773 7.56268 14.3663 7.29438C14.9031 6.92547 15.4291 6.56215 15.9386 6.21001C16.6946 5.69018 17.4122 5.18153 18.0806 4.68965L18.234 4.57785L18.3326 4.50519C21.773 1.98989 24.4958 0 27.7061 0C33.3817 0 37.9945 4.71201 37.9945 10.5028H38Z" fill="#FF9719"/>
<path id="Vector_2" d="M28 8.88182L25.6119 14.0298L24.8286 12.8728C24.4178 13.1578 24.0125 13.4317 23.6182 13.7056C23.0869 14.0745 22.561 14.4323 22.0571 14.7844C21.3013 15.3098 20.5837 15.8129 19.9155 16.3048L19.7621 16.4166L19.6635 16.4892C16.2183 19.0101 13.5016 21 10.2919 21C4.61737 21 0 16.288 0 10.5028C0 4.71759 4.61737 0 10.2919 0C13.7207 0 16.8865 1.73277 18.7926 4.58344L18.6393 4.69524C17.971 5.18712 17.2535 5.69018 16.4977 6.2156C15.1119 4.1251 12.795 2.85627 10.2919 2.85627C6.16197 2.85627 2.7989 6.28267 2.7989 10.5028C2.7989 14.7229 6.1565 18.1493 10.2919 18.1493C12.6033 18.1493 14.8818 16.4836 18.0368 14.1696L18.2887 13.9851C19.4444 13.1411 20.7152 12.2635 22.0571 11.3356C22.446 11.0673 22.8349 10.799 23.2402 10.5196L22.4405 9.34576L28 8.88182Z" fill="#00A6AC"/>
</g>
</svg>
