<svg width="16" height="16" viewBox="0 0 16 16" fill="none" xmlns="http://www.w3.org/2000/svg">
<path d="M9.986 9.986C9.82143 9.9266 9.63107 9.95579 9.48995 10.0771C8.53417 10.8987 7.29483 11.3925 5.94625 11.3925C2.93823 11.3925 0.5 8.95427 0.5 5.94625C0.5 2.93823 2.93823 0.5 5.94625 0.5C8.95427 0.5 11.3925 2.93823 11.3925 5.94625C11.3925 7.29483 10.8987 8.53417 10.0771 9.48995C9.95579 9.63107 9.92659 9.82143 9.986 9.986ZM10.5274 10.5274C10.5857 10.5506 10.6485 10.5629 10.7124 10.5629H11.2277L15.2932 14.6366L14.6366 15.2932L10.5629 11.2277V10.7124C10.5629 10.6485 10.5506 10.5857 10.5274 10.5274ZM1.32962 5.94625C1.32962 8.50027 3.39224 10.5629 5.94625 10.5629C8.50027 10.5629 10.5629 8.50027 10.5629 5.94625C10.5629 3.39224 8.50027 1.32962 5.94625 1.32962C3.39224 1.32962 1.32962 3.39224 1.32962 5.94625Z" stroke="#474747" strokeLinejoin="round"/>
</svg>
