<svg width="17" height="20" viewBox="0 0 17 20" fill="none" xmlns="http://www.w3.org/2000/svg">
<path d="M8.49984 10C9.4805 10 10.4391 9.70676 11.2545 9.15735C12.0699 8.60795 12.7055 7.82705 13.0807 6.91342C13.456 5.99979 13.5542 4.99446 13.3629 4.02455C13.1716 3.05465 12.6993 2.16373 12.0059 1.46447C11.3125 0.765206 10.429 0.289002 9.46716 0.0960759C8.50534 -0.0968503 7.50838 0.00216642 6.60237 0.380605C5.69635 0.759043 4.92196 1.39991 4.37713 2.22215C3.8323 3.0444 3.5415 4.0111 3.5415 5C3.5415 6.32609 4.0639 7.59786 4.99377 8.53554C5.92363 9.47322 7.18481 10 8.49984 10ZM8.49984 1.42857C9.20031 1.42857 9.88506 1.63803 10.4675 2.03047C11.0499 2.4229 11.5039 2.98068 11.7719 3.63328C12.04 4.28587 12.1101 5.00396 11.9735 5.69675C11.8368 6.38954 11.4995 7.02591 11.0042 7.52538C10.5089 8.02486 9.8778 8.365 9.19078 8.50281C8.50377 8.64061 7.79166 8.56989 7.1445 8.29957C6.49735 8.02926 5.94421 7.5715 5.55505 6.98418C5.16589 6.39686 4.95817 5.70637 4.95817 5C4.95817 4.0528 5.33131 3.14439 5.9955 2.47462C6.65969 1.80485 7.56053 1.42857 8.49984 1.42857Z" fill="white"/>
<path d="M9.20833 11.4286H7.79167C5.72519 11.4286 3.74335 12.2564 2.28213 13.7299C0.820906 15.2034 0 17.2019 0 19.2857C0 19.4752 0.0746279 19.6569 0.207466 19.7908C0.340304 19.9248 0.520472 20 0.708333 20H16.2917C16.4795 20 16.6597 19.9248 16.7925 19.7908C16.9254 19.6569 17 19.4752 17 19.2857C17 17.2019 16.1791 15.2034 14.7179 13.7299C13.2567 12.2564 11.2748 11.4286 9.20833 11.4286ZM1.45917 18.5714C1.63334 17.0005 2.3754 15.5493 3.54356 14.4952C4.71173 13.4411 6.22408 12.8579 7.79167 12.8572H9.20833C10.7759 12.8579 12.2883 13.4411 13.4564 14.4952C14.6246 15.5493 15.3667 17.0005 15.5408 18.5714H1.45917Z" fill="white"/>
</svg>
