  <svg
              xmlns="http://www.w3.org/2000/svg"
              width="90"
              height="90"
              viewBox="0 0 90 90"
              fill="none"
            >
              <circle
                cx="45"
                cy="45"
                r="44"
                fill="white"
                stroke="url(#paint0_linear_1_10173)"
                stroke-width="2"
              />
              <path
                d="M56.8065 34.4119C55.8387 31.9288 52.6452 31.6853 51.5323 31.2958C51.3387 31.2471 50.8065 31.0037 50.7581 31.0037C50.6129 30.955 50.0806 31.3932 49.7903 32.0262C49.0645 33.5842 47.5161 34.9962 45 35.0449C42.4839 34.9962 40.9355 33.5842 40.2097 32.0262C39.9194 31.3932 39.3871 30.955 39.2419 31.0037C39.1935 31.0037 38.6613 31.1984 38.4677 31.2958C37.3548 31.6853 34.1129 31.8801 33.1935 34.4119C32.6613 35.8239 31.3548 37.6741 30 39.4269C30.3871 40.3033 33.0484 42.7865 34.3548 43.176C35.4677 42.2022 36.4355 40.5955 36.4355 40.5955C36.9677 40.8389 36.2419 42.9326 36.3387 43.9063C36.5806 46.4382 37.4516 47.1198 37.0161 51.2584C36.7258 54.0337 35.8548 56.8577 36.0968 57.1011C37.4032 58.5618 40.8871 58.9513 45 59C49.1129 58.9513 52.5968 58.5618 53.9032 57.1011C54.1452 56.809 53.2742 54.0337 52.9839 51.2584C52.5484 47.1198 53.4194 46.4382 53.6613 43.9063C53.7581 42.9326 53.0323 40.8389 53.5645 40.5955C53.5645 40.5955 54.5323 42.1535 55.6452 43.176C57 42.7378 59.6129 40.3033 60 39.4269C58.6452 37.6741 57.3387 35.8239 56.8065 34.4119Z"
                fill="url(#paint1_linear_1_10173)"
              />
              <defs>
                <linearGradient
                  id="paint0_linear_1_10173"
                  x1="69.4149"
                  y1="-7.48552e-07"
                  x2="20.6132"
                  y2="89.9817"
                  gradientUnits="userSpaceOnUse"
                >
                  <stop stop-color="#62E660" />
                  <stop offset="1" stop-color="#36FFF3" />
                </linearGradient>
                <linearGradient
                  id="paint1_linear_1_10173"
                  x1="45"
                  y1="31"
                  x2="45"
                  y2="59"
                  gradientUnits="userSpaceOnUse"
                >
                  <stop stop-color="#3BFBDF" />
                  <stop offset="1" stop-color="#5DE870" />
                </linearGradient>
              </defs>
            </svg>