<svg width="25" height="24" viewBox="0 0 25 24" fill="none" xmlns="http://www.w3.org/2000/svg">
<path d="M18.5 4H5.5C4.94772 4 4.5 4.44772 4.5 5V21C4.5 21.5523 4.94772 22 5.5 22H18.5C19.0523 22 19.5 21.5523 19.5 21V5C19.5 4.44772 19.0523 4 18.5 4Z" stroke="#838697" stroke-width="1.5" stroke-linejoin="round"/>
<path d="M9 2V5M15 2V5M8 9.5H16M8 13.5H14M8 17.5H12" stroke="#838697" stroke-width="1.5" stroke-linecap="round" stroke-linejoin="round"/>
<path d="M23.2289 7.79567C22.9846 7.54342 22.6944 7.34331 22.3751 7.20679C22.0558 7.07027 21.7136 7 21.3679 7C21.0223 7 20.6801 7.07027 20.3607 7.20679C20.0414 7.34331 19.7513 7.54342 19.507 7.79567L18.9999 8.31893L18.4928 7.79567C17.9992 7.28638 17.3298 7.00026 16.6318 7.00026C15.9338 7.00026 15.2644 7.28638 14.7708 7.79567C14.2773 8.30495 14 8.99569 14 9.71593C14 10.4362 14.2773 11.1269 14.7708 11.6362L15.2779 12.1595L18.9999 16L22.7218 12.1595L23.2289 11.6362C23.4734 11.3841 23.6673 11.0847 23.7996 10.7552C23.9319 10.4257 24 10.0726 24 9.71593C24 9.35928 23.9319 9.00613 23.7996 8.67664C23.6673 8.34716 23.4734 8.0478 23.2289 7.79567Z" fill="#1E1E2D" stroke="#838697" stroke-width="1.2" stroke-linecap="round" stroke-linejoin="round"/>
</svg>
