<svg width="38" height="37" viewBox="0 0 38 37" fill="none" xmlns="http://www.w3.org/2000/svg">
<path fillRule="evenodd" clipRule="evenodd" d="M19.1882 36C28.8644 36 36.7085 28.165 36.7085 18.5C36.7085 8.83502 28.8644 1 19.1882 1C9.51206 1 1.66797 8.83502 1.66797 18.5C1.66797 28.165 9.51206 36 19.1882 36Z" stroke="black" stroke-width="1.5"/>
<path d="M20.7827 14.0208H22.3929C22.5411 14.0208 22.6613 13.9076 22.6613 13.7682V12.2526C22.6613 12.1132 22.5411 12 22.3929 12H20.7827C19.1553 12 17.8306 13.2463 17.8306 14.7786V16.5468H15.952C15.8038 16.5468 15.6836 16.6599 15.6836 16.7994V18.3149C15.6836 18.4544 15.8038 18.5675 15.952 18.5675H17.8306V23.8721C17.8306 24.0115 17.9508 24.1247 18.099 24.1247H19.7092C19.8573 24.1247 19.9776 24.0115 19.9776 23.8721V18.5675H21.8562C21.9716 18.5675 22.0741 18.4978 22.1111 18.3948L22.6479 16.8792C22.6753 16.8024 22.6613 16.7175 22.6109 16.6513C22.5599 16.5857 22.4794 16.5468 22.3929 16.5468H19.9776V14.7786C19.9776 14.3608 20.3388 14.0208 20.7827 14.0208Z" fill="black"/>
</svg>
