<svg width="38" height="37" viewBox="0 0 38 37" fill="none" xmlns="http://www.w3.org/2000/svg">
<path fillRule="evenodd" clipRule="evenodd" d="M19.1297 36C28.8058 36 36.6499 28.165 36.6499 18.5C36.6499 8.83502 28.8058 1 19.1297 1C9.45347 1 1.60938 8.83502 1.60938 18.5C1.60938 28.165 9.45347 36 19.1297 36Z" stroke="black" stroke-width="1.5"/>
<path d="M15.1083 14.9671C15.9286 14.9671 16.5936 14.3029 16.5936 13.4835C16.5936 12.6642 15.9286 12 15.1083 12C14.288 12 13.623 12.6642 13.623 13.4835C13.623 14.3029 14.288 14.9671 15.1083 14.9671Z" fill="black"/>
<path d="M16.346 15.958H13.8706C13.7339 15.958 13.623 16.0688 13.623 16.2053V23.623C13.623 23.7595 13.7339 23.8703 13.8706 23.8703H16.346C16.4827 23.8703 16.5936 23.7595 16.5936 23.623V16.2053C16.5936 16.0688 16.4827 15.958 16.346 15.958Z" fill="black"/>
<path d="M23.7236 15.5464C22.6656 15.1844 21.3422 15.5024 20.5486 16.0726C20.5213 15.9662 20.4243 15.8871 20.3089 15.8871H17.8335C17.6968 15.8871 17.5859 15.9979 17.5859 16.1344V23.5521C17.5859 23.6886 17.6968 23.7994 17.8335 23.7994H20.3089C20.4456 23.7994 20.5565 23.6886 20.5565 23.5521V18.2212C20.9565 17.8771 21.4719 17.7673 21.8937 17.9463C22.3027 18.1189 22.5368 18.5402 22.5368 19.1015V23.5521C22.5368 23.6886 22.6477 23.7994 22.7844 23.7994H25.2598C25.3965 23.7994 25.5074 23.6886 25.5074 23.5521V18.6035C25.4792 16.5715 24.5221 15.8194 23.7236 15.5464Z" fill="black"/>
</svg>
