<svg width="38" height="37" viewBox="0 0 38 37" fill="none" xmlns="http://www.w3.org/2000/svg">
<path fillRule="evenodd" clipRule="evenodd" d="M19.2468 36C28.923 36 36.7671 28.165 36.7671 18.5C36.7671 8.83502 28.923 1 19.2468 1C9.57066 1 1.72656 8.83502 1.72656 18.5C1.72656 28.165 9.57066 36 19.2468 36Z" stroke="black" stroke-width="1.5"/>
<path d="M24.9746 15.2647C24.8933 15.1729 24.7622 15.1498 24.6547 15.2064C24.5878 15.2416 24.4621 15.2878 24.3129 15.3334C24.5012 15.0762 24.6526 14.7882 24.7194 14.5293C24.7483 14.4177 24.706 14.3001 24.614 14.2336C24.522 14.1677 24.3995 14.1677 24.3075 14.2336C24.1625 14.3375 23.4628 14.6497 23.0204 14.7508C22.0205 13.8511 20.857 13.7577 19.6475 14.4831C18.6642 15.0729 18.4502 16.2721 18.492 17.0031C16.2414 16.7805 14.8425 15.5593 14.055 14.5485C13.9999 14.4776 13.9111 14.4403 13.8276 14.4458C13.7399 14.4524 13.6607 14.5024 13.6158 14.5799C13.2435 15.2257 13.1402 15.9396 13.3184 16.6447C13.4157 17.0295 13.5858 17.3686 13.7832 17.6434C13.6885 17.5956 13.5971 17.5357 13.5109 17.4642C13.4318 17.3972 13.321 17.3845 13.2274 17.429C13.1343 17.4747 13.0749 17.5714 13.0749 17.6775C13.0749 18.8882 13.8121 19.6962 14.5006 20.1183C14.3893 20.1045 14.2733 20.0792 14.1561 20.0424C14.0555 20.0111 13.9464 20.0424 13.8769 20.1238C13.8073 20.2046 13.7907 20.32 13.8341 20.4184C14.2208 21.2972 14.9537 21.9017 15.8605 22.121C15.0687 22.5986 14.009 22.8328 13.0386 22.7179C12.9129 22.6998 12.793 22.7817 12.7534 22.9059C12.7138 23.0301 12.7657 23.1664 12.8765 23.2301C14.3487 24.0793 15.6797 24.3827 16.8298 24.3827C18.5037 24.3827 19.7956 23.7407 20.582 23.2038C22.7021 21.7583 24.0234 19.163 23.8394 16.841C24.1791 16.5832 24.6873 16.1072 25.0024 15.5955C25.0677 15.4922 25.0559 15.3559 24.9746 15.2647Z" fill="black"/>
</svg>
