<svg width="24" height="24" viewBox="0 0 24 24" fill="none" xmlns="http://www.w3.org/2000/svg">
<g clipPath="url(#clip0_2136_13485)">
<path d="M12 1.99902C9.89206 1.99892 7.86926 2.83078 6.37124 4.31381C4.87323 5.79685 4.02108 7.81119 4 9.91902C4 15.399 11.05 21.499 11.35 21.759C11.5311 21.914 11.7616 21.9991 12 21.9991C12.2384 21.9991 12.4689 21.914 12.65 21.759C13 21.499 20 15.399 20 9.91902C19.9789 7.81119 19.1268 5.79685 17.6288 4.31381C16.1307 2.83078 14.1079 1.99892 12 1.99902ZM12 19.649C10.33 18.059 6 13.649 6 9.91902C6 8.32772 6.63214 6.8016 7.75736 5.67638C8.88258 4.55116 10.4087 3.91902 12 3.91902C13.5913 3.91902 15.1174 4.55116 16.2426 5.67638C17.3679 6.8016 18 8.32772 18 9.91902C18 13.619 13.67 18.059 12 19.649Z" fill="#838697"/>
<path d="M12 5.99854C11.3078 5.99854 10.6311 6.20381 10.0555 6.58839C9.47993 6.97298 9.03133 7.5196 8.76642 8.15914C8.50152 8.79868 8.4322 9.50242 8.56725 10.1814C8.7023 10.8603 9.03564 11.4839 9.52513 11.9734C10.0146 12.4629 10.6383 12.7962 11.3172 12.9313C11.9961 13.0663 12.6999 12.997 13.3394 12.7321C13.9789 12.4672 14.5256 12.0186 14.9101 11.443C15.2947 10.8675 15.5 10.1908 15.5 9.49853C15.5 8.57028 15.1313 7.68004 14.4749 7.02366C13.8185 6.36728 12.9283 5.99854 12 5.99854ZM12 10.9985C11.7033 10.9985 11.4133 10.9106 11.1666 10.7457C10.92 10.5809 10.7277 10.3466 10.6142 10.0726C10.5007 9.79847 10.4709 9.49687 10.5288 9.2059C10.5867 8.91493 10.7296 8.64765 10.9393 8.43787C11.1491 8.2281 11.4164 8.08523 11.7074 8.02736C11.9983 7.96948 12.2999 7.99918 12.574 8.11272C12.8481 8.22625 13.0824 8.41851 13.2472 8.66518C13.412 8.91185 13.5 9.20186 13.5 9.49853C13.5 9.89636 13.342 10.2779 13.0607 10.5592C12.7794 10.8405 12.3978 10.9985 12 10.9985Z" fill="#838697"/>
</g>
<defs>
<clipPath id="clip0_2136_13485">
<rect width="24" height="24" fill="white"/>
</clipPath>
</defs>
</svg>
