<svg width="24" height="24" viewBox="0 0 24 24" fill="none" xmlns="http://www.w3.org/2000/svg">
<path d="M12.6442 7.82394C12.6442 8.87354 12.6423 9.92314 12.6442 10.9727C12.6461 11.969 13.3184 12.64 14.3172 12.6413C15.9884 12.6432 17.6589 12.6432 19.33 12.6413C20.3262 12.64 20.9979 11.9658 20.9986 10.9676C21.0005 8.86776 21.0005 6.76856 20.9986 4.66936C20.9979 3.67247 20.325 3.00273 19.3249 3.00145C17.6537 2.99952 15.9832 2.99952 14.3121 3.00145C13.3159 3.00273 12.6468 3.67504 12.6448 4.6745C12.6429 5.7241 12.6448 6.7737 12.6448 7.8233L12.6442 7.82394ZM13.9277 7.8323C13.9277 6.80455 13.9265 5.77745 13.9277 4.74971C13.9277 4.36792 14.0126 4.285 14.4021 4.285C16.0179 4.28372 17.6344 4.28372 19.2503 4.285C19.6321 4.285 19.7144 4.36984 19.7144 4.75935C19.715 6.80327 19.7156 8.84783 19.7144 10.8918C19.7144 11.2735 19.6289 11.3565 19.2407 11.3565C17.6248 11.3577 16.0083 11.3577 14.3924 11.3565C14.0107 11.3565 13.929 11.2716 13.9284 10.8815C13.9271 9.86465 13.9284 8.84783 13.9284 7.83101L13.9277 7.8323Z" fill="#838697"/>
<path d="M11.3569 16.1775C11.3569 15.1279 11.3581 14.0783 11.3569 13.0287C11.3549 12.0299 10.6852 11.3602 9.68508 11.3589C8.01395 11.3569 6.34346 11.3569 4.67233 11.3589C3.67479 11.3602 3.00377 12.0318 3.00249 13.03C3.00056 15.1292 3.00056 17.229 3.00249 19.3282C3.00313 20.3258 3.67608 20.9974 4.67297 20.9987C6.3441 21.0006 8.01459 21.0006 9.68572 20.9987C10.6833 20.9974 11.3543 20.3251 11.3562 19.3269C11.3581 18.2773 11.3562 17.2277 11.3562 16.1782L11.3569 16.1775ZM10.0733 16.1775C10.0733 17.2053 10.0746 18.2324 10.0727 19.2601C10.072 19.6265 9.98524 19.7145 9.62145 19.7152C7.99467 19.7164 6.36788 19.7164 4.7411 19.7152C4.37538 19.7152 4.28733 19.6271 4.28668 19.2627C4.2854 17.2078 4.2854 15.153 4.28668 13.0981C4.28668 12.7324 4.37474 12.6437 4.73853 12.6437C6.36531 12.6424 7.99209 12.6424 9.61887 12.6437C9.9846 12.6437 10.072 12.7311 10.0727 13.0956C10.0746 14.1233 10.0733 15.1504 10.0733 16.1782V16.1775Z" fill="#838697"/>
<path d="M7.18465 3.00141C6.3388 3.00141 5.49231 2.99884 4.64646 3.00141C3.68749 3.00462 3.0049 3.6795 3.00233 4.63269C2.99847 5.89632 2.99911 7.1606 3.00233 8.42423C3.0049 9.3832 3.68106 10.0671 4.63361 10.069C6.32595 10.0729 8.01829 10.0722 9.70999 10.069C10.669 10.0671 11.3522 9.38963 11.3548 8.43708C11.3586 7.17345 11.358 5.90918 11.3548 4.64555C11.3522 3.68722 10.6754 3.00527 9.72284 3.00141C8.87699 2.99755 8.0305 3.00141 7.18465 3.00141ZM7.19494 8.78673C6.37094 8.78673 5.54695 8.78866 4.72359 8.78609C4.37908 8.78481 4.28653 8.69354 4.28588 8.34967C4.28331 7.14067 4.28331 5.93167 4.28588 4.72267C4.28653 4.37881 4.37844 4.28625 4.72295 4.28625C6.36001 4.28432 7.99708 4.28432 9.63414 4.28625C9.9793 4.28625 10.0712 4.37816 10.0719 4.72203C10.0744 5.93103 10.0744 7.14003 10.0719 8.34903C10.0719 8.69289 9.9793 8.78481 9.63479 8.78609C8.82172 8.78866 8.00801 8.78673 7.19494 8.78673Z" fill="#838697"/>
<path d="M16.8363 20.9989C17.6719 20.9989 18.5068 21.0008 19.3424 20.9989C20.3193 20.9957 20.9961 20.3208 20.9981 19.3451C21.0006 18.0918 21.0006 16.839 20.9981 15.5857C20.9961 14.6094 20.32 13.9319 19.3443 13.9306C17.6629 13.9281 15.9815 13.9281 14.3001 13.9306C13.3231 13.9319 12.6469 14.6074 12.645 15.5831C12.6424 16.8365 12.6424 18.0892 12.645 19.3425C12.6469 20.3195 13.3224 20.995 14.2981 20.9982C15.144 21.0008 15.9905 20.9982 16.8363 20.9982V20.9989ZM16.8273 15.2136C17.6404 15.2136 18.4535 15.2123 19.2665 15.2142C19.6194 15.2155 19.7132 15.3029 19.7139 15.6403C19.7164 16.8603 19.7119 18.0802 19.7171 19.2995C19.7184 19.6009 19.5821 19.7185 19.2871 19.7172C17.6391 19.7121 15.9918 19.7127 14.3438 19.7172C14.0423 19.7179 13.9234 19.5829 13.9247 19.2879C13.9305 18.0789 13.926 16.8699 13.9279 15.6609C13.9279 15.2997 14.0172 15.2148 14.3868 15.2142C15.1999 15.2123 16.013 15.2142 16.826 15.2142L16.8273 15.2136Z" fill="#838697"/>
</svg>
