<?xml version="1.0" encoding="utf-8"?>
<!-- Generator: Adobe Illustrator 24.3.0, SVG Export Plug-In . SVG Version: 6.00 Build 0)  -->
<svg version="1.1" id="Layer_1" xmlns="http://www.w3.org/2000/svg" xmlns:xlink="http://www.w3.org/1999/xlink" x="0px" y="0px"
	 viewBox="0 0 180 97.1" style="enable-background:new 0 0 180 97.1;" xml:space="preserve">
<style type="text/css">
	.st0{display:none;fill:#FFFFFF;stroke:#000000;stroke-miterlimit:10;}
	.st1{fill:#F49625;}
	.st2{fill:#09A7AC;}
</style>
<circle class="st0" cx="90" cy="48.5" r="70.1"/>
<g>
	<path class="st1" d="M179.6,48.4c0,26.5-21.5,48-47.9,48c-16,0-30.7-7.9-39.6-21l0.7-0.5c3.1-2.3,6.5-4.6,10-7
		c6.5,9.6,17.2,15.4,28.9,15.4c19.2,0,34.9-15.7,34.9-35c0-19.3-15.6-35-34.9-35c-10.8,0-21.4,7.6-36,18.2l-1.2,0.9
		c-5.4,3.9-11.3,7.9-17.6,12.1c-1.8,1.2-3.6,2.5-5.5,3.7l3.7,5.4l-25.9,2.1l11.1-23.6l3.6,5.3c1.9-1.3,3.8-2.6,5.6-3.8
		c2.5-1.7,4.9-3.4,7.3-5c3.5-2.4,6.9-4.7,10-7l0.7-0.5l0.5-0.3c16-11.5,28.7-20.6,43.6-20.6C158.1,0.3,179.6,21.9,179.6,48.4
		L179.6,48.4z"/>
	<path class="st2" d="M130.5,41l-11.1,23.6l-3.6-5.3c-1.9,1.3-3.8,2.6-5.6,3.8c-2.5,1.7-4.9,3.3-7.3,4.9c-3.5,2.4-6.9,4.7-10,7
		l-0.7,0.5l-0.5,0.3C75.6,87.3,63,96.4,48,96.4c-26.4,0-47.9-21.6-47.9-48C0.1,21.9,21.6,0.3,48,0.3c16,0,30.7,7.9,39.6,21l-0.7,0.5
		c-3.1,2.3-6.5,4.6-10,7C70.5,19.2,59.7,13.4,48,13.4c-19.2,0-34.9,15.7-34.9,35s15.6,35,34.9,35c10.8,0,21.4-7.6,36.1-18.2l1.2-0.8
		c5.4-3.9,11.3-7.9,17.5-12.1c1.8-1.2,3.6-2.5,5.5-3.7l-3.7-5.4L130.5,41L130.5,41z"/>
</g>
</svg>
