<svg width="14" height="14" viewBox="0 0 14 14" fill="none" xmlns="http://www.w3.org/2000/svg">
<path d="M4.7893 4.5029C4.7893 4.5029 2.14043 4.81048 0.3734 5.01612C0.214133 5.03633 0.0733071 5.14793 0.0204974 5.31754C-0.0323123 5.48715 0.0204973 5.66378 0.137852 5.77539C1.45055 7.03117 3.42295 8.91178 3.42295 8.91178C3.42127 8.91178 2.88144 11.6474 2.52267 13.4727C2.49249 13.6379 2.5495 13.8128 2.68697 13.9173C2.8236 14.0219 2.99964 14.0237 3.13795 13.942C4.68368 13.021 6.99892 11.636 6.99892 11.636C6.99892 11.636 9.315 13.021 10.8582 13.9428C10.999 14.0237 11.1751 14.0219 11.3117 13.9173C11.4492 13.8128 11.5062 13.6379 11.4752 13.4736C11.1164 11.6474 10.5774 8.91178 10.5774 8.91178C10.5774 8.91178 12.5498 7.03117 13.8625 5.77802C13.9799 5.6629 14.0318 5.48627 13.9799 5.31754C13.9279 5.14881 13.7871 5.03721 13.6278 5.01787C11.8608 4.81048 9.21106 4.5029 9.21106 4.5029C9.21106 4.5029 8.11296 1.95618 7.38116 0.258363C7.31243 0.106333 7.16825 0 6.99892 0C6.8296 0 6.68458 0.107212 6.61919 0.258363C5.88657 1.95618 4.7893 4.5029 4.7893 4.5029Z" fill="#FE9A21"/>
</svg>
