<svg xmlns="http://www.w3.org/2000/svg" width="26" height="19" viewBox="0 0 26 19" fill="none">
  <path d="M7.19795 17.5249C8.51453 17.5249 9.58182 16.4612 9.58182 15.1489C9.58182 13.8367 8.51453 12.7729 7.19795 12.7729C5.88138 12.7729 4.81409 13.8367 4.81409 15.1489C4.81409 16.4612 5.88138 17.5249 7.19795 17.5249Z" stroke="#474747" stroke-width="1.3" stroke-miterlimit="10"/>
  <path d="M19.5946 17.5249C20.9111 17.5249 21.9784 16.4612 21.9784 15.1489C21.9784 13.8367 20.9111 12.7729 19.5946 12.7729C18.278 12.7729 17.2107 13.8367 17.2107 15.1489C17.2107 16.4612 18.278 17.5249 19.5946 17.5249Z" stroke="#474747" stroke-width="1.3" stroke-miterlimit="10"/>
  <path d="M22.4543 15.1488H23.4079C23.8932 15.1488 24.3614 14.6822 24.3614 14.1984C24.3614 14.1984 24.3614 10.46 24.3614 9.62939C24.3614 8.79826 23.6873 7.85737 23.6873 7.85737L21.7206 5.24282C21.3182 4.75954 20.7165 4.21924 20.0705 4.21924H16.2563C15.7709 4.21924 15.3027 4.68636 15.3027 5.16964V14.1984C15.3027 14.6803 15.7738 15.145 16.2563 15.1488H17.2098M24.3614 9.92164C24.3614 9.92164 19.5937 9.92164 19.1169 9.92164C18.6401 9.92164 18.1634 9.44644 18.1634 8.97124C18.1634 8.69705 18.1634 7.78894 18.1634 7.07044C18.1634 6.54439 18.6401 6.12004 19.1169 6.12004C19.5937 6.12004 22.3809 6.12004 22.3809 6.12004" stroke="#474747" stroke-width="1.3" stroke-miterlimit="10"/>
  <path d="M9.58183 15.1485H14.423C14.9074 15.1485 15.3031 14.7546 15.3031 14.2713V1.84295C15.3031 1.35967 14.2842 0.855957 13.7994 0.855957H2.35681C1.87193 0.855957 1.47668 1.2499 1.47668 1.73318V14.1981C1.47668 14.6819 1.94535 15.1485 2.43023 15.1485H4.8141" stroke="#474747" stroke-width="1.3" stroke-miterlimit="10"/>
</svg>