<svg width="21" height="20" viewBox="0 0 21 20" fill="none" xmlns="http://www.w3.org/2000/svg">
<path d="M4.521 8.54441C4.521 8.1528 4.2109 7.82715 3.82327 7.82715C3.81919 7.82715 3.81919 7.82715 3.81511 7.82715C1.70966 7.82715 0 9.55434 0 11.6814C0 13.8084 1.70966 15.5356 3.81511 15.5356C3.81919 15.5356 3.81919 15.5356 3.82327 15.5356C4.2109 15.5356 4.521 15.21 4.521 14.8184V8.54441Z" fill="#474747"/>
<path d="M15.8809 8.54441C15.8809 8.1528 16.191 7.82715 16.5786 7.82715C16.5827 7.82715 16.5827 7.82715 16.5868 7.82715C18.6922 7.82715 20.4019 9.55434 20.4019 11.6814C20.4019 13.8084 18.6922 15.5356 16.5868 15.5356C16.5827 15.5356 16.5827 15.5356 16.5786 15.5356C16.191 15.5356 15.8809 15.21 15.8809 14.8184V8.54441Z" fill="#474747"/>
<path d="M18.5534 10.9476C18.1617 10.9476 17.8435 10.6137 17.8435 10.1974C17.8435 5.75777 14.4201 2.72385 10.2092 2.72385C5.99826 2.72385 2.57486 5.76189 2.57486 10.1974C2.57486 10.6096 2.2566 10.9476 1.86488 10.9476C1.47317 10.9476 1.15491 10.6137 1.15491 10.1974C1.15491 4.93333 5.21892 0.650391 10.2092 0.650391C15.1994 0.650391 19.2634 4.93333 19.2634 10.1974C19.2634 10.6137 18.9451 10.9476 18.5534 10.9476Z" fill="#474747"/>
<path d="M12.0165 18.9776C11.7799 18.9776 11.531 18.9653 11.2739 18.9447L11.3555 17.9883C15.9337 18.3923 16.9456 14.5545 16.9864 14.3896L17.9085 14.6205C17.8963 14.67 17.6025 15.8489 16.6355 16.966C15.8235 17.9141 14.3791 18.9776 12.0165 18.9776Z" fill="#474747"/>
<path d="M11.1882 20C12.0085 20 12.6735 19.3282 12.6735 18.4995C12.6735 17.6708 12.0085 16.999 11.1882 16.999C10.368 16.999 9.703 17.6708 9.703 18.4995C9.703 19.3282 10.368 20 11.1882 20Z" fill="#474747"/>
</svg>
