<svg width="199" height="22" viewBox="0 0 199 22" fill="none" xmlns="http://www.w3.org/2000/svg">
<path d="M39.7351 0.669936C39.7488 0.527675 39.8083 0.408359 39.9044 0.316578C40.0006 0.224796 40.1241 0.174316 40.2752 0.174316H43.0765C43.3374 0.174316 43.5113 0.316578 43.5937 0.6011L47.553 11.6653C48.2167 9.80678 48.885 7.96197 49.5533 6.13552C50.2215 4.30907 50.8852 2.46426 51.5444 0.605689C51.6496 0.321167 51.819 0.178905 52.0616 0.178905H54.8766C55.0276 0.178905 55.1466 0.229385 55.2428 0.325756C55.3343 0.422126 55.3847 0.541442 55.3938 0.674525C55.6684 3.30406 55.9522 5.92442 56.236 8.53101C56.5198 11.1376 56.8036 13.7534 57.0874 16.3783V16.4104C57.0874 16.7179 56.9226 16.8694 56.5931 16.8694H54.4189C54.0801 16.8694 53.9062 16.7041 53.8925 16.3737L52.7482 5.73627L49.0131 16.08C48.9765 16.1856 48.917 16.282 48.8346 16.3737C48.7522 16.4655 48.6653 16.5068 48.5783 16.5068H46.5597C46.4636 16.5068 46.3721 16.4655 46.2897 16.3783C46.2073 16.2911 46.1478 16.1948 46.1112 16.08C45.4978 14.35 44.8799 12.6291 44.262 10.9173C43.6395 9.2102 43.017 7.48471 42.3899 5.74545L41.2456 16.3691C41.2456 16.6996 41.0716 16.8648 40.7283 16.8648H38.5542C38.2246 16.8648 38.0598 16.6996 38.0598 16.3691L39.7351 0.669936Z" fill="white"/>
<path d="M73.9821 16.2084C73.9821 16.3415 73.9546 16.4562 73.8997 16.5388C73.8447 16.6214 73.7715 16.6903 73.68 16.7407C73.5884 16.7912 73.4877 16.8233 73.3733 16.8417C73.2588 16.8601 73.1353 16.8692 73.0071 16.8692H71.6065C71.3684 16.8692 71.1991 16.805 71.1075 16.6765C71.016 16.548 70.9428 16.3874 70.9016 16.1946L70.8329 15.2401C70.572 15.5017 70.2836 15.7495 69.9632 15.9744C69.6474 16.2038 69.3041 16.4011 68.9379 16.5709C68.5718 16.7407 68.1827 16.8692 67.7707 16.9656C67.3588 17.0574 66.9377 17.1079 66.5028 17.1079C65.83 17.1079 65.18 17.0207 64.5575 16.8417C63.935 16.6673 63.3491 16.4195 62.8044 16.0983C62.2597 15.7816 61.7654 15.3961 61.3168 14.9464C60.8728 14.4967 60.4884 13.9965 60.1725 13.4504C59.8567 12.9043 59.6095 12.3169 59.431 11.6836C59.2525 11.0503 59.1655 10.3986 59.1655 9.71487C59.1655 9.0311 59.2525 8.37486 59.431 7.74616C59.6095 7.11746 59.8521 6.53005 60.1725 5.97937C60.4884 5.43327 60.8728 4.93765 61.3168 4.48792C61.7608 4.04278 62.2552 3.66189 62.8044 3.34065C63.3491 3.024 63.935 2.77619 64.5575 2.59722C65.18 2.42284 65.83 2.33105 66.5028 2.33105C66.9834 2.33105 67.4366 2.38153 67.8714 2.48249C68.3063 2.58345 68.7091 2.72571 69.089 2.90928C69.4643 3.09284 69.8168 3.31312 70.1372 3.57469C70.4576 3.83627 70.7505 4.1162 71.0114 4.42367L71.167 3.22133C71.2037 3.08825 71.2403 2.97352 71.2723 2.89092C71.3044 2.80373 71.3456 2.73489 71.3959 2.68441C71.4463 2.63393 71.5058 2.59722 71.579 2.57886C71.6522 2.56051 71.7484 2.55133 71.8582 2.55133H72.9796C73.0986 2.55133 73.2177 2.56051 73.3367 2.58345C73.4557 2.6064 73.5655 2.64311 73.6616 2.689C73.7578 2.73948 73.8356 2.80373 73.8905 2.89092C73.9454 2.97811 73.9729 3.08366 73.9729 3.21216V16.1992L73.9821 16.2084ZM62.3192 9.71946C62.3192 10.3206 62.4245 10.8851 62.6351 11.422C62.8456 11.9589 63.134 12.427 63.5093 12.8308C63.8847 13.2347 64.3241 13.5559 64.8276 13.79C65.3311 14.024 65.8849 14.1433 66.48 14.1433C67.075 14.1433 67.6517 14.024 68.1781 13.79C68.7045 13.5559 69.1622 13.2347 69.5513 12.8308C69.9403 12.427 70.247 11.9543 70.4713 11.422C70.6956 10.8851 70.8054 10.316 70.8054 9.71946C70.8054 9.12288 70.691 8.56301 70.4713 8.02609C70.247 7.48917 69.9403 7.02108 69.5513 6.61266C69.1622 6.20882 68.7045 5.88758 68.1781 5.64436C67.6517 5.40573 67.0842 5.28642 66.48 5.28642C65.8758 5.28642 65.3311 5.40573 64.8276 5.64436C64.3241 5.883 63.8847 6.20423 63.5093 6.61266C63.134 7.0165 62.8456 7.48917 62.6351 8.02609C62.4245 8.56301 62.3192 9.12747 62.3192 9.71946Z" fill="white"/>
<path d="M82.0333 16.8694C81.4428 16.8602 80.889 16.7731 80.3672 16.5987C79.8454 16.4243 79.3968 16.1765 79.0123 15.8507C78.6278 15.5248 78.3211 15.121 78.0968 14.6483C77.8726 14.1711 77.7627 13.6295 77.7627 13.0238V6.3421H76.4719C76.2568 6.3421 76.092 6.29162 75.9822 6.19525C75.8723 6.09888 75.8174 5.93826 75.8174 5.71339V4.10263C75.8174 3.88694 75.8723 3.73091 75.9822 3.64372C76.092 3.55194 76.2522 3.51064 76.4719 3.51064H77.7627C77.7627 3.11139 77.7627 2.71673 77.7673 2.32666C77.7673 1.932 77.7719 1.53734 77.7719 1.14268C77.7719 0.991239 77.8176 0.876513 77.9138 0.78932C78.0053 0.702128 78.1518 0.624114 78.344 0.559867C78.4722 0.513976 78.6232 0.458907 78.8017 0.39466C78.9803 0.330413 79.1679 0.270755 79.3556 0.211097C79.5433 0.151439 79.7309 0.10096 79.9094 0.0596579C80.0879 0.0183563 80.239 0 80.358 0C80.5914 0 80.7425 0.064247 80.8112 0.192741C80.8798 0.321235 80.9164 0.491031 80.9164 0.697539C80.9164 1.17021 80.9164 1.6383 80.9119 2.10638C80.9119 2.57447 80.9073 3.04714 80.9073 3.51982H82.523C82.7153 3.51982 82.8663 3.5703 82.9716 3.67126C83.0769 3.77222 83.1272 3.92824 83.1272 4.14852V5.68127C83.1272 5.9199 83.0769 6.0897 82.9716 6.19525C82.8663 6.30079 82.7153 6.35127 82.523 6.35127H80.9073V8.9441C80.9073 9.20109 80.9073 9.44431 80.9119 9.66917C80.9119 9.89404 80.9164 8.76054 80.9164 9.02211V11.1606C80.9164 11.1606 80.9164 11.1927 80.9119 11.2065C80.9073 11.2203 80.9073 11.2386 80.9073 11.2524V12.7255C80.9073 13.2211 81.0034 13.5791 81.2002 13.7947C81.3925 14.0104 81.7083 14.1206 82.1431 14.1206C82.2988 14.1206 82.4223 14.1756 82.5139 14.2904C82.6054 14.4005 82.6466 14.5382 82.6466 14.6942V16.2591C82.6466 16.4518 82.5917 16.6078 82.4818 16.7134C82.372 16.8235 82.2209 16.8786 82.0287 16.8786L82.0333 16.8694Z" fill="white"/>
<path d="M94.9411 13.1248C95.0692 13.0422 95.1745 12.9918 95.2615 12.9734C95.3484 12.9551 95.4217 12.9459 95.4812 12.9459C95.6093 12.9551 95.7146 13.0193 95.8062 13.1478L96.0762 13.5195L96.8727 14.653C96.9093 14.7081 96.9413 14.7586 96.9642 14.8182C96.9871 14.8733 96.9962 14.9238 96.9962 14.9697C96.9962 15.089 96.955 15.1945 96.8727 15.2909C96.7903 15.3873 96.6804 15.479 96.5477 15.5754C95.9114 16.0389 95.2248 16.4152 94.4879 16.6997C93.751 16.9843 92.9408 17.1265 92.062 17.1265C91.3937 17.1265 90.7529 17.0393 90.1258 16.8603C89.4987 16.686 88.9174 16.4382 88.3773 16.1169C87.8372 15.8003 87.3383 15.4148 86.8897 14.9697C86.4411 14.5245 86.0521 14.0289 85.7271 13.4782C85.4021 12.9321 85.1503 12.3447 84.9764 11.7114C84.8025 11.0827 84.7109 10.4265 84.7109 9.7427C84.7109 9.05893 84.7979 8.40269 84.9764 7.77399C85.1549 7.14529 85.4021 6.55789 85.7271 6.0072C86.0521 5.45651 86.4411 4.96548 86.8897 4.51575C87.3383 4.06602 87.8326 3.68972 88.3773 3.36848C88.9174 3.05184 89.5033 2.80403 90.1258 2.62505C90.7483 2.45067 91.3937 2.35889 92.062 2.35889C92.8905 2.35889 93.6777 2.48738 94.4147 2.73978C95.1562 2.99677 95.8107 3.34095 96.3875 3.77232L96.3737 3.76314C96.479 3.86869 96.5797 3.96047 96.6804 4.03849C96.7811 4.1165 96.8315 4.24041 96.8315 4.40561C96.8315 4.4515 96.8315 4.50198 96.8269 4.56164C96.8223 4.6213 96.804 4.67637 96.7674 4.73144L95.8474 6.13569C95.6963 6.36056 95.5315 6.47528 95.353 6.47528C95.2249 6.47528 95.083 6.41104 94.9273 6.28254C94.5474 5.96131 94.1034 5.69973 93.5908 5.49781C93.0827 5.29589 92.5609 5.19493 92.0208 5.19493C91.4395 5.19493 90.8902 5.31884 90.3776 5.56206C89.8649 5.80528 89.4163 6.13569 89.0273 6.5533C88.6382 6.9709 88.3315 7.45275 88.1072 8.00344C87.883 8.55413 87.7685 9.13236 87.7685 9.7427C87.7685 10.353 87.883 10.9496 88.1072 11.4957C88.3315 12.0418 88.6382 12.5191 89.0227 12.9229C89.4072 13.3268 89.8603 13.648 90.373 13.882C90.8856 14.1161 91.4395 14.2354 92.0208 14.2354C92.657 14.2354 93.2063 14.1253 93.6686 13.905C94.1309 13.6847 94.5566 13.4185 94.9365 13.1111L94.9411 13.1248Z" fill="white"/>
<path d="M102.599 5.90177C102.787 5.66314 102.997 5.44286 103.24 5.23635C103.478 5.03444 103.752 4.86005 104.064 4.70861C104.375 4.55717 104.727 4.44245 105.126 4.35984C105.524 4.27724 105.968 4.23594 106.471 4.23594C107.318 4.23594 108.064 4.40114 108.714 4.72697C109.364 5.05279 109.909 5.49334 110.353 6.05321C110.792 6.61308 111.126 7.26472 111.355 8.01733C111.584 8.76535 111.698 9.56385 111.698 10.3991V16.062C111.698 16.3327 111.634 16.5346 111.506 16.6677C111.378 16.8008 111.195 16.8696 110.957 16.8696H109.254C108.957 16.8696 108.755 16.8146 108.655 16.6999C108.554 16.5897 108.504 16.3878 108.504 16.1033V10.3945C108.504 9.99522 108.435 9.60974 108.298 9.23802C108.16 8.86172 107.959 8.53131 107.703 8.2422C107.446 7.95308 107.13 7.72363 106.764 7.54466C106.398 7.37027 105.991 7.27849 105.542 7.27849C105.199 7.27849 104.855 7.34274 104.512 7.47582C104.169 7.6089 103.858 7.79706 103.574 8.04487C103.29 8.29268 103.061 8.59555 102.883 8.9535C102.704 9.31145 102.608 9.71988 102.603 10.1788V15.6857C102.603 15.8279 102.594 15.9702 102.581 16.1125C102.567 16.2547 102.535 16.3832 102.484 16.4933C102.434 16.6035 102.365 16.6953 102.278 16.7641C102.187 16.8329 102.073 16.8651 101.931 16.8651H100.081C99.8342 16.8651 99.6512 16.8054 99.5367 16.6907C99.4223 16.5759 99.3628 16.4062 99.3628 16.1905V0.853793C99.3628 0.661052 99.4223 0.495845 99.5413 0.37194C99.6603 0.243446 99.8342 0.179199 100.068 0.179199H101.917C102.091 0.179199 102.246 0.243446 102.388 0.376529C102.53 0.509612 102.603 0.661052 102.603 0.844614V5.90177H102.599Z" fill="white"/>
<path d="M121.805 8.9578C121.805 8.06752 121.388 7.62238 120.551 7.62238C120.436 7.62238 120.294 7.63156 120.125 7.64991C119.956 7.66827 119.841 7.62697 119.777 7.52601C119.672 7.38375 119.841 7.28738 120.281 7.2369C120.436 7.20936 120.587 7.20018 120.743 7.20018C121.489 7.20018 121.997 7.52142 122.267 8.16848C122.382 8.43923 122.441 8.78341 122.441 9.20102C122.441 9.61862 122.263 10.1464 121.901 10.7751C121.269 11.9223 120.281 12.7805 118.93 13.3449C118.482 13.5377 118.015 13.6341 117.53 13.6341C117.045 13.6341 116.55 13.5102 116.033 13.2669C115.081 12.8172 114.417 12.06 114.046 11.0045C113.905 10.5915 113.836 10.0729 113.836 9.44883C113.836 8.82471 114.01 8.03539 114.358 7.08087C115.154 5.21312 116.468 3.62071 118.294 2.30364C120.249 0.885622 122.075 0.174316 123.773 0.174316C125.215 0.174316 126.176 0.757128 126.666 1.91357C126.886 2.41837 126.996 3.02413 126.996 3.73085C126.996 3.96489 126.982 4.20352 126.959 4.44674C126.831 5.56647 126.497 6.85141 125.956 8.29697C125.865 8.54019 125.819 8.7054 125.819 8.788C125.819 8.8706 125.837 8.91191 125.879 8.91191C125.943 8.92567 126.053 8.788 126.208 8.50348C127.16 6.76422 128.208 5.20394 129.353 3.82263C129.724 3.3729 130.177 3.00577 130.703 2.72125C131.28 2.41378 131.797 2.25775 132.255 2.25775C132.712 2.25775 133.069 2.42755 133.335 2.76255C133.6 3.09755 133.729 3.54269 133.729 4.09797C133.729 5.40127 133.221 7.5719 132.204 10.6145C131.998 11.2202 131.87 11.6057 131.82 11.7755C132.864 10.1372 134.168 8.33827 135.747 6.36956C137.322 4.40544 138.722 3.23982 139.944 2.87728C140.164 2.81303 140.356 2.78091 140.526 2.78091C141.016 2.78091 141.331 3.02413 141.469 3.51516C141.519 3.68496 141.547 3.8777 141.547 4.09797C141.547 4.75421 141.29 5.5986 140.773 6.63114C139.72 8.7467 138.997 10.4263 138.613 11.6791C138.086 13.3312 137.821 14.4555 137.821 15.0613C137.821 15.667 137.88 16.1718 137.995 16.5711C138.228 17.3696 138.837 17.7688 139.826 17.7688C139.876 17.7688 139.981 17.7688 140.146 17.7596C140.306 17.7505 140.398 17.7826 140.416 17.8468C140.434 17.9111 140.389 17.9707 140.283 18.0212C140.173 18.0717 140.064 18.0992 139.954 18.0992C139.844 18.0992 139.757 18.09 139.693 18.0809C137.66 17.8744 136.644 16.8281 136.644 14.9465C136.644 14.2628 136.782 13.4872 137.061 12.6153C137.34 11.7434 137.573 11.0779 137.766 10.6145C138.072 9.86643 138.722 8.40252 139.716 6.22271C140.064 5.41045 140.237 4.79092 140.237 4.36414C140.237 3.93735 140.059 3.72626 139.697 3.72626C139.194 3.72626 138.416 4.24023 137.363 5.27277C136.823 5.81428 136.237 6.47511 135.61 7.25525C134.978 8.03539 134.049 9.40294 132.813 11.3533C131.577 13.3082 130.795 14.685 130.46 15.4835C130.163 16.181 129.774 16.5298 129.284 16.5298C128.936 16.5298 128.73 16.4059 128.666 16.1626C128.63 16.0571 128.63 15.9791 128.666 15.9194C128.703 15.8598 128.826 15.6441 129.032 15.2724C129.238 14.9006 129.449 14.506 129.669 14.093C129.888 13.68 130.149 13.1201 130.451 12.4088C130.753 11.6975 131.033 10.977 131.289 10.2427C131.907 8.42547 132.323 6.55771 132.543 4.63489C132.566 4.41462 132.58 4.14386 132.58 3.81345C132.58 3.48304 132.493 3.22605 132.319 3.02872C132.145 2.83598 131.962 2.73961 131.77 2.73961C131.138 2.73961 130.447 3.21687 129.687 4.1714C128.657 5.44716 127.764 6.69997 127.005 7.93443C126.245 9.16431 125.664 10.2014 125.261 11.0366C124.853 11.8764 124.386 12.8815 123.851 14.0654C123.315 15.2448 123.036 15.8735 123 15.9515C122.963 16.0296 122.922 16.1259 122.867 16.2407C122.812 16.3554 122.762 16.4655 122.72 16.5711C122.551 16.9428 122.194 17.1309 121.64 17.1309C121.32 17.1309 121.146 17.03 121.118 16.8235C121.118 16.7868 121.123 16.7409 121.137 16.6904C121.983 15.3733 122.926 13.3817 123.952 10.7154C125.265 7.33786 125.92 4.87352 125.92 3.32701C125.92 1.4822 125.16 0.559798 123.645 0.559798C122.665 0.559798 121.434 1.03247 119.951 1.97323C118.464 2.91399 117.237 4.12092 116.257 5.58942C115.873 6.16764 115.584 6.7321 115.388 7.27361C115.053 8.26485 114.884 9.05417 114.884 9.63239C114.884 11.2936 115.438 12.3904 116.541 12.9182C116.926 13.1109 117.319 13.2073 117.717 13.2073C119.104 13.2073 120.244 12.4547 121.132 10.9449C121.581 10.1831 121.809 9.52225 121.809 8.95321L121.805 8.9578Z" fill="white"/>
<path d="M137.56 21.9905C136.992 21.9905 136.557 21.8712 136.246 21.6326C135.935 21.3939 135.784 21.1094 135.784 20.7744C135.784 20.4394 135.88 20.0585 136.072 19.6317C136.406 18.9755 137.01 18.4432 137.885 18.0439C138.539 17.7365 139.409 17.4473 140.489 17.1858C141.569 16.9196 142.265 16.7452 142.572 16.6534C143.034 15.8412 143.588 14.391 144.229 12.303C143.483 13.6201 142.86 14.5379 142.357 15.0702C141.853 15.598 141.345 15.8641 140.832 15.8641C140.137 15.8641 139.734 15.575 139.615 14.9922C139.409 14.0606 140.008 12.6472 140.095 12.4407L140.443 11.7661C140.878 10.9263 141.24 10.2196 141.524 9.63675C141.652 9.36599 141.903 9.23291 142.274 9.23291H143.451C143.423 9.26044 143.359 9.31092 143.258 9.38894C143.025 9.54497 142.851 9.72394 142.737 9.93045C142.274 10.7289 141.693 11.8716 141.002 13.3539C140.718 13.9597 140.576 14.4048 140.576 14.6893C140.576 14.9738 140.626 15.1712 140.723 15.2905C140.819 15.4098 140.951 15.4649 141.116 15.4649C141.359 15.4649 141.702 15.2079 142.137 14.6893C143.048 13.6201 144.059 11.9359 145.167 9.64134C145.309 9.37058 145.561 9.2375 145.918 9.2375H146.961C146.627 9.47154 146.362 9.76065 146.169 10.1186C145.977 10.4765 145.767 10.9538 145.542 11.5596C145.318 12.1653 145.034 12.973 144.696 13.978C144.357 14.983 144.096 15.7402 143.913 16.2404C145.121 15.8779 146.046 15.24 146.691 14.3268C146.975 13.9275 147.378 13.2162 147.909 12.1975C148 12.0185 148.078 11.9451 148.151 11.9864C148.225 12.0231 148.257 12.0781 148.257 12.1424C148.257 12.2066 148.151 12.4544 147.936 12.8858C147.721 13.3172 147.511 13.7164 147.291 14.0836C147.071 14.4507 146.787 14.827 146.444 15.2125C146.101 15.598 145.712 15.9054 145.286 16.1303C144.86 16.3551 144.297 16.5984 143.588 16.8554C142.599 18.6589 141.601 19.9897 140.599 20.8387C139.661 21.6142 138.644 21.9997 137.551 21.9997L137.56 21.9905ZM136.443 20.0769C136.301 20.3614 136.232 20.623 136.232 20.8616C136.232 21.1002 136.324 21.2838 136.502 21.4123C136.681 21.5408 136.91 21.605 137.18 21.605C137.926 21.605 138.722 21.2196 139.574 20.4532C140.42 19.6868 141.167 18.8654 141.812 17.9889L142.238 17.273C140.114 17.8282 138.777 18.2275 138.228 18.4707C137.404 18.8332 136.814 19.3656 136.452 20.0769H136.443Z" fill="white"/>
<path d="M145.625 0.807437C145.625 0.655997 145.675 0.536682 145.771 0.449489C145.868 0.357708 145.991 0.316406 146.142 0.316406H157.938C158.07 0.316406 158.194 0.357708 158.304 0.440311C158.414 0.522914 158.473 0.646819 158.487 0.812026V2.77615C158.487 2.92759 158.441 3.05608 158.345 3.17081C158.249 3.28553 158.116 3.3406 157.938 3.3406H153.676V16.4929C153.676 16.626 153.631 16.7499 153.534 16.8554C153.443 16.961 153.31 17.0114 153.15 17.0114H150.939C150.806 17.0114 150.683 16.961 150.573 16.8646C150.463 16.7682 150.408 16.6443 150.408 16.4929V3.33601H146.138C145.987 3.33601 145.863 3.29012 145.767 3.19375C145.671 3.10197 145.62 2.95971 145.62 2.77156V0.807437H145.625Z" fill="white"/>
<path d="M169.774 15.4332C169.115 15.993 168.397 16.4382 167.614 16.7594C166.831 17.0806 165.975 17.2413 165.041 17.2413C164.03 17.2413 163.073 17.0485 162.171 16.6676C161.27 16.2867 160.473 15.759 159.796 15.0936C159.114 14.4282 158.574 13.6434 158.176 12.7486C157.777 11.8537 157.576 10.89 157.576 9.85286C157.576 9.18745 157.658 8.54039 157.823 7.92086C157.988 7.30134 158.221 6.71394 158.523 6.17243C158.826 5.63092 159.196 5.13071 159.627 4.67639C160.057 4.22207 160.542 3.83659 161.078 3.51077C161.613 3.18494 162.19 2.93713 162.817 2.76275C163.439 2.58836 164.098 2.49658 164.794 2.49658C165.362 2.49658 165.925 2.56542 166.474 2.70309C167.028 2.84076 167.554 3.03809 168.049 3.29508C168.548 3.55207 169.01 3.85954 169.445 4.22207C169.88 4.58461 170.259 4.99763 170.589 5.45194C171.038 6.08065 171.367 6.75983 171.578 7.4849C171.788 8.20997 171.894 9.01765 171.894 9.90334C171.894 10.119 171.884 10.3026 171.866 10.4494C171.848 10.5963 171.802 10.7156 171.724 10.8028C171.646 10.89 171.537 10.9588 171.39 11.0001C171.239 11.0414 171.033 11.0598 170.763 11.0598H160.817C160.913 11.6013 161.1 12.0786 161.37 12.4916C161.645 12.9092 161.966 13.258 162.341 13.5471C162.716 13.8362 163.124 14.0519 163.563 14.1987C164.002 14.3456 164.446 14.419 164.886 14.419C165.22 14.419 165.545 14.3869 165.856 14.318C166.167 14.2492 166.456 14.162 166.726 14.0473C166.996 13.9325 167.243 13.8041 167.472 13.6572C167.701 13.5104 167.902 13.3589 168.072 13.2029C168.072 13.1937 168.072 13.1937 168.081 13.1937C168.172 13.1111 168.255 13.0469 168.337 12.9964C168.419 12.9459 168.506 12.923 168.593 12.923C168.662 12.923 168.735 12.9459 168.822 12.9918C168.909 13.0377 168.992 13.1111 169.074 13.2167C169.275 13.4645 169.449 13.671 169.591 13.8362C169.733 14.0014 169.847 14.1391 169.939 14.2538C170.031 14.3685 170.095 14.4649 170.136 14.5475C170.177 14.6301 170.195 14.7127 170.195 14.7953C170.195 15.0064 170.053 15.2129 169.77 15.424L169.774 15.4332ZM164.794 5.29133C164.355 5.29133 163.925 5.36934 163.503 5.53455C163.082 5.69516 162.702 5.91544 162.355 6.19078C162.007 6.46613 161.705 6.79195 161.448 7.16826C161.192 7.54456 161 7.9484 160.881 8.38436H168.822C168.703 7.92545 168.52 7.50785 168.278 7.13154C168.035 6.75524 167.742 6.42942 167.399 6.15407C167.055 5.87873 166.662 5.66763 166.222 5.52078C165.783 5.36934 165.307 5.29592 164.799 5.29592L164.794 5.29133Z" fill="white"/>
<path d="M185.309 15.4332C184.65 15.993 183.932 16.4382 183.149 16.7594C182.366 17.0806 181.51 17.2413 180.577 17.2413C179.565 17.2413 178.608 17.0485 177.707 16.6676C176.805 16.2867 176.008 15.759 175.331 15.0936C174.649 14.4282 174.109 13.6434 173.711 12.7486C173.312 11.8537 173.111 10.89 173.111 9.85286C173.111 9.18745 173.193 8.54039 173.358 7.92086C173.523 7.30134 173.756 6.71394 174.059 6.17243C174.361 5.63092 174.731 5.13071 175.162 4.67639C175.592 4.22207 176.077 3.83659 176.613 3.51077C177.148 3.18494 177.725 2.93713 178.352 2.76275C178.975 2.58836 179.634 2.49658 180.329 2.49658C180.897 2.49658 181.46 2.56542 182.009 2.70309C182.563 2.84076 183.089 3.03809 183.584 3.29508C184.083 3.55207 184.545 3.85954 184.98 4.22207C185.415 4.58461 185.795 4.99763 186.124 5.45194C186.573 6.08065 186.902 6.75983 187.113 7.4849C187.323 8.20997 187.429 9.01765 187.429 9.90334C187.429 10.119 187.42 10.3026 187.401 10.4494C187.383 10.5963 187.337 10.7156 187.259 10.8028C187.182 10.89 187.072 10.9588 186.925 11.0001C186.774 11.0414 186.568 11.0598 186.298 11.0598H176.352C176.448 11.6013 176.636 12.0786 176.906 12.4916C177.18 12.9092 177.501 13.258 177.876 13.5471C178.251 13.8362 178.659 14.0519 179.098 14.1987C179.538 14.3456 179.982 14.419 180.421 14.419C180.755 14.419 181.08 14.3869 181.391 14.318C181.703 14.2492 181.991 14.162 182.261 14.0473C182.531 13.9325 182.778 13.8041 183.007 13.6572C183.236 13.5104 183.437 13.3589 183.607 13.2029C183.607 13.1937 183.607 13.1937 183.616 13.1937C183.707 13.1111 183.79 13.0469 183.872 12.9964C183.955 12.9459 184.042 12.923 184.128 12.923C184.197 12.923 184.27 12.9459 184.357 12.9918C184.444 13.0377 184.527 13.1111 184.609 13.2167C184.811 13.4645 184.984 13.671 185.126 13.8362C185.268 14.0014 185.383 14.1391 185.474 14.2538C185.566 14.3685 185.63 14.4649 185.671 14.5475C185.712 14.6301 185.731 14.7127 185.731 14.7953C185.731 15.0064 185.589 15.2129 185.305 15.424L185.309 15.4332ZM180.329 5.29133C179.89 5.29133 179.46 5.36934 179.039 5.53455C178.617 5.69516 178.238 5.91544 177.89 6.19078C177.542 6.46613 177.24 6.79195 176.983 7.16826C176.727 7.54456 176.535 7.9484 176.416 8.38436H184.357C184.238 7.92545 184.055 7.50785 183.813 7.13154C183.57 6.75524 183.277 6.42942 182.934 6.15407C182.591 5.87873 182.197 5.66763 181.757 5.52078C181.318 5.36934 180.842 5.29592 180.334 5.29592L180.329 5.29133Z" fill="white"/>
<path d="M190.711 12.9825C190.866 13.2303 191.068 13.4414 191.306 13.625C191.544 13.8039 191.791 13.9508 192.038 14.0701C192.29 14.1848 192.528 14.272 192.757 14.3225C192.986 14.3776 193.164 14.4005 193.301 14.4005C193.512 14.4005 193.759 14.3776 194.043 14.3317C194.327 14.2858 194.592 14.2078 194.844 14.0885C195.096 13.9737 195.306 13.8131 195.485 13.6158C195.659 13.4185 195.75 13.1661 195.75 12.8586C195.75 12.5511 195.682 12.3171 195.544 12.1289C195.407 11.9408 195.219 11.7848 194.981 11.6609C194.743 11.5369 194.478 11.436 194.176 11.3534C193.874 11.2708 193.553 11.179 193.219 11.0826C192.432 10.8715 191.763 10.6191 191.21 10.3254C190.656 10.0271 190.203 9.69214 189.846 9.30666C189.489 8.92577 189.232 8.50357 189.068 8.04925C188.903 7.59494 188.82 7.09473 188.82 6.55322C188.82 5.94746 188.939 5.39218 189.177 4.89197C189.415 4.39177 189.754 3.96039 190.189 3.59786C190.624 3.23991 191.146 2.95998 191.754 2.76265C192.363 2.56532 193.036 2.46436 193.777 2.46436C194.299 2.46436 194.766 2.51025 195.178 2.60662C195.59 2.70299 195.97 2.84066 196.322 3.02881C196.675 3.21696 197.004 3.45101 197.316 3.73553C197.627 4.02005 197.943 4.35505 198.263 4.73595C198.378 4.86903 198.433 5.00211 198.433 5.13061C198.433 5.26369 198.359 5.39218 198.208 5.5115C198.094 5.60328 197.961 5.71342 197.81 5.8465C197.659 5.97958 197.503 6.11267 197.357 6.24116C197.206 6.36965 197.064 6.4752 196.931 6.56698C196.798 6.65877 196.684 6.70007 196.592 6.70007C196.428 6.70007 196.268 6.6037 196.112 6.40637C195.947 6.21363 195.782 6.03924 195.618 5.89698C195.453 5.75013 195.279 5.63081 195.1 5.53903C194.922 5.44725 194.725 5.37383 194.519 5.32794C194.308 5.27746 194.08 5.25451 193.832 5.25451C193.631 5.25451 193.42 5.28663 193.201 5.34629C192.981 5.40595 192.78 5.49773 192.597 5.61705C192.413 5.73636 192.262 5.88321 192.139 6.04842C192.015 6.21821 191.956 6.40637 191.956 6.61746C191.956 6.8561 192.034 7.0626 192.185 7.2324C192.336 7.40219 192.532 7.54905 192.766 7.67295C192.999 7.79686 193.256 7.89782 193.535 7.98042C193.814 8.06302 194.07 8.13645 194.308 8.20528C194.995 8.39802 195.627 8.62289 196.199 8.87988C196.771 9.13686 197.27 9.44433 197.682 9.80687C198.098 10.1694 198.419 10.5962 198.652 11.0872C198.881 11.5782 199 12.1519 199 12.8127C199 13.5102 198.863 14.1344 198.588 14.6851C198.314 15.2357 197.929 15.7038 197.444 16.0847C196.959 16.4656 196.377 16.7593 195.709 16.9612C195.041 17.1631 194.313 17.2641 193.53 17.2641C193.059 17.2641 192.583 17.2136 192.093 17.1127C191.608 17.0117 191.141 16.8557 190.697 16.64C190.253 16.4243 189.841 16.1536 189.466 15.8186C189.086 15.4835 188.77 15.0889 188.518 14.6346C188.404 14.4464 188.349 14.2766 188.349 14.1298C188.349 14.0334 188.372 13.9462 188.422 13.8774C188.472 13.8085 188.537 13.7351 188.619 13.6709L189.873 12.7026C189.988 12.6337 190.088 12.6016 190.175 12.6016C190.28 12.6016 190.372 12.6383 190.454 12.7072C190.537 12.776 190.628 12.8724 190.724 12.9917L190.711 12.9825Z" fill="white"/>
<path d="M32.2192 10.8231C32.2192 15.5773 28.3606 19.4413 23.6232 19.4413C20.7532 19.4413 18.1076 18.0233 16.5193 15.6783L16.6474 15.5865C17.2059 15.1827 17.8055 14.7697 18.4372 14.3383C19.5952 16.0546 21.5222 17.0963 23.6232 17.0963C27.0744 17.0963 29.8848 14.2832 29.8848 10.8185C29.8848 7.35372 27.079 4.54062 23.6232 4.54062C21.6916 4.54062 19.7874 5.90816 17.1555 7.80345L16.9404 7.95948C15.9746 8.65243 14.9127 9.37291 13.7867 10.1347C13.4663 10.3504 13.1367 10.5752 12.8026 10.8001L13.4708 11.7638L8.82495 12.1447L10.816 7.91818L11.4706 8.86811C11.8139 8.63866 12.148 8.40921 12.473 8.18893C12.9216 7.88605 13.361 7.58776 13.7867 7.29865C14.4183 6.87187 15.018 6.45426 15.5764 6.05043L15.7045 5.95864L15.7869 5.89899C18.6614 3.8339 20.9363 2.2002 23.6186 2.2002C28.3606 2.2002 32.2146 6.06878 32.2146 10.8231H32.2192Z" fill="#FF9719"/>
<path d="M23.3988 9.49223L21.4032 13.7188L20.7486 12.7688C20.4053 13.0029 20.0666 13.2277 19.7371 13.4526C19.2931 13.7555 18.8536 14.0492 18.4325 14.3383C17.8009 14.7697 17.2013 15.1827 16.6428 15.5865L16.5147 15.6783L16.4323 15.738C13.5532 17.8076 11.2829 19.4413 8.60063 19.4413C3.85861 19.4413 0 15.5727 0 10.8231C0 6.07337 3.85861 2.2002 8.60063 2.2002C11.466 2.2002 14.1116 3.62281 15.7045 5.96323L15.5763 6.05501C15.0179 6.45885 14.4183 6.87187 13.7866 7.30324C12.6286 5.58693 10.6924 4.54521 8.60063 4.54521C5.14939 4.54521 2.33897 7.35831 2.33897 10.8231C2.33897 14.2878 5.14482 17.1009 8.60063 17.1009C10.5322 17.1009 12.4364 15.7334 15.0728 13.8335L15.2834 13.6821C16.2492 12.9891 17.3111 12.2686 18.4325 11.5068C18.7575 11.2866 19.0825 11.0663 19.4212 10.8368L18.7529 9.87312L23.3988 9.49223Z" fill="#00A6AC"/>
</svg>
