<svg width="242" height="26" viewBox="0 0 242 26" fill="none" xmlns="http://www.w3.org/2000/svg">
<path d="M48.321 0.791848C48.3377 0.623721 48.41 0.482711 48.5269 0.374243C48.6438 0.265774 48.7941 0.206116 48.9778 0.206116H52.3843C52.7016 0.206116 52.9131 0.374243 53.0133 0.710496L57.8282 13.7864C58.6353 11.5899 59.448 9.40971 60.2606 7.25117C61.0733 5.09264 61.8804 2.91242 62.682 0.71592C62.81 0.379666 63.016 0.211539 63.311 0.211539H66.7342C66.9179 0.211539 67.0627 0.271197 67.1795 0.385089C67.2909 0.498982 67.3521 0.639991 67.3632 0.797271C67.6972 3.90491 68.0423 7.0017 68.3874 10.0822C68.7325 13.1627 69.0776 16.2541 69.4228 19.3563V19.3943C69.4228 19.7576 69.2224 19.9366 68.8216 19.9366H66.1776C65.7657 19.9366 65.5542 19.7414 65.5375 19.3509L64.1459 6.77933L59.6038 19.0038C59.5593 19.1285 59.4869 19.2424 59.3867 19.3509C59.2865 19.4594 59.1808 19.5082 59.075 19.5082H56.6203C56.5034 19.5082 56.3921 19.4594 56.2919 19.3563C56.1917 19.2533 56.1193 19.1394 56.0748 19.0038C55.3289 16.9591 54.5775 14.9254 53.826 12.9024C53.069 10.8849 52.312 8.84567 51.5494 6.79018L50.1578 19.3455C50.1578 19.7359 49.9463 19.9312 49.5288 19.9312H46.8849C46.4841 19.9312 46.2837 19.7359 46.2837 19.3455L48.321 0.791848Z" fill="black"/>
<path d="M89.9678 19.1556C89.9678 19.3129 89.9344 19.4485 89.8676 19.5461C89.8008 19.6437 89.7117 19.7251 89.6004 19.7848C89.4891 19.8444 89.3666 19.8824 89.2275 19.9041C89.0883 19.9258 88.938 19.9366 88.7822 19.9366H87.0789C86.7894 19.9366 86.5835 19.8607 86.4722 19.7088C86.3608 19.557 86.2718 19.3671 86.2217 19.1394L86.1382 18.0113C85.8209 18.3204 85.4702 18.6133 85.0806 18.879C84.6965 19.1502 84.279 19.3834 83.8337 19.5841C83.3884 19.7848 82.9153 19.9366 82.4143 20.0505C81.9134 20.159 81.4013 20.2186 80.8725 20.2186C80.0542 20.2186 79.2638 20.1156 78.5068 19.9041C77.7498 19.698 77.0373 19.4051 76.3749 19.0255C75.7125 18.6513 75.1114 18.1957 74.5659 17.6642C74.0259 17.1327 73.5584 16.5415 73.1743 15.8961C72.7902 15.2507 72.4896 14.5565 72.2726 13.8081C72.0555 13.0597 71.9497 12.2895 71.9497 11.4815C71.9497 10.6734 72.0555 9.89781 72.2726 9.15479C72.4896 8.41178 72.7847 7.71758 73.1743 7.06677C73.5584 6.42138 74.0259 5.83565 74.5659 5.30415C75.1058 4.77807 75.707 4.32793 76.3749 3.94829C77.0373 3.57407 77.7498 3.2812 78.5068 3.06969C79.2638 2.8636 80.0542 2.75513 80.8725 2.75513C81.4569 2.75513 82.008 2.81478 82.5368 2.9341C83.0656 3.05342 83.5554 3.22154 84.0174 3.43848C84.4739 3.65542 84.9025 3.91574 85.2921 4.22488C85.6817 4.53402 86.038 4.86485 86.3553 5.22822L86.5445 3.80728C86.5891 3.65 86.6336 3.51441 86.6726 3.41679C86.7115 3.31374 86.7616 3.23239 86.8228 3.17273C86.8841 3.11307 86.9564 3.06969 87.0455 3.04799C87.1346 3.0263 87.2514 3.01545 87.385 3.01545H88.7488C88.8935 3.01545 89.0382 3.0263 89.1829 3.05342C89.3277 3.08053 89.4613 3.12392 89.5781 3.17816C89.695 3.23781 89.7897 3.31374 89.8565 3.41679C89.9233 3.51983 89.9567 3.64457 89.9567 3.79643V19.1448L89.9678 19.1556ZM75.7849 11.4869C75.7849 12.1973 75.9129 12.8644 76.169 13.499C76.425 14.1335 76.7757 14.6867 77.2321 15.164C77.6886 15.6412 78.2229 16.0209 78.8352 16.2975C79.4475 16.5741 80.121 16.7151 80.8446 16.7151C81.5683 16.7151 82.2696 16.5741 82.9097 16.2975C83.5499 16.0209 84.1065 15.6412 84.5796 15.164C85.0528 14.6867 85.4257 14.1281 85.6985 13.499C85.9712 12.8644 86.1048 12.1919 86.1048 11.4869C86.1048 10.7818 85.9656 10.1202 85.6985 9.48563C85.4257 8.85108 85.0528 8.29789 84.5796 7.8152C84.1065 7.33794 83.5499 6.9583 82.9097 6.67086C82.2696 6.38884 81.5794 6.24783 80.8446 6.24783C80.1099 6.24783 79.4475 6.38884 78.8352 6.67086C78.2229 6.95288 77.6886 7.33252 77.2321 7.8152C76.7757 8.29247 76.425 8.85108 76.169 9.48563C75.9129 10.1202 75.7849 10.7873 75.7849 11.4869Z" fill="black"/>
<path d="M99.7592 19.9366C99.0412 19.9257 98.3676 19.8227 97.7331 19.6166C97.0985 19.4105 96.553 19.1177 96.0855 18.7326C95.6179 18.3475 95.245 17.8703 94.9722 17.3116C94.6995 16.7476 94.5659 16.1076 94.5659 15.3917V7.4952H92.9962C92.7346 7.4952 92.5342 7.43555 92.4006 7.32165C92.267 7.20776 92.2002 7.01794 92.2002 6.75219V4.84856C92.2002 4.59366 92.267 4.40926 92.4006 4.30622C92.5342 4.19775 92.729 4.14894 92.9962 4.14894H94.5659C94.5659 3.6771 94.5659 3.21068 94.5714 2.74969C94.5714 2.28327 94.577 1.81685 94.577 1.35044C94.577 1.17146 94.6327 1.03588 94.7496 0.932833C94.8609 0.829787 95.039 0.737589 95.2728 0.661661C95.4286 0.607426 95.6123 0.542345 95.8294 0.466416C96.0465 0.390488 96.2747 0.319983 96.5029 0.249479C96.7312 0.178974 96.9594 0.119316 97.1765 0.0705048C97.3935 0.0216938 97.5772 0 97.722 0C98.0058 0 98.1895 0.0759282 98.273 0.227785C98.3565 0.379641 98.401 0.580309 98.401 0.824364C98.401 1.38298 98.401 1.93617 98.3955 2.48936C98.3955 3.04255 98.3899 3.60117 98.3899 4.15978H100.355C100.589 4.15978 100.772 4.21944 100.9 4.33876C101.028 4.45807 101.09 4.64247 101.09 4.9028V6.71423C101.09 6.99625 101.028 7.19691 100.9 7.32165C100.772 7.44639 100.589 7.50605 100.355 7.50605H98.3899V10.5703C98.3899 10.874 98.3899 11.1615 98.3955 11.4272C98.3955 11.693 98.401 10.3534 98.401 10.6625V13.1898C98.401 13.1898 98.401 13.2278 98.3955 13.2441C98.3899 13.2603 98.3899 13.282 98.3899 13.2983V15.0392C98.3899 15.625 98.5068 16.048 98.7461 16.3029C98.9799 16.5578 99.364 16.6879 99.8928 16.6879C100.082 16.6879 100.232 16.753 100.344 16.8886C100.455 17.0188 100.505 17.1815 100.505 17.3659V19.2153C100.505 19.4431 100.438 19.6275 100.305 19.7522C100.171 19.8824 99.9874 19.9474 99.7537 19.9474L99.7592 19.9366Z" fill="black"/>
<path d="M115.456 15.5111C115.612 15.4134 115.74 15.3538 115.845 15.3321C115.951 15.3104 116.04 15.2996 116.113 15.2996C116.268 15.3104 116.396 15.3863 116.508 15.5382L116.836 15.9775L117.805 17.3171C117.849 17.3822 117.888 17.4418 117.916 17.5123C117.944 17.5774 117.955 17.6371 117.955 17.6913C117.955 17.8323 117.905 17.957 117.805 18.0709C117.705 18.1848 117.571 18.2933 117.41 18.4072C116.636 18.955 115.801 19.3997 114.905 19.7359C114.009 20.0722 113.023 20.2403 111.955 20.2403C111.142 20.2403 110.363 20.1373 109.6 19.9258C108.837 19.7197 108.131 19.4268 107.474 19.0472C106.817 18.6729 106.21 18.2174 105.665 17.6913C105.119 17.1652 104.646 16.5795 104.251 15.9287C103.856 15.2833 103.549 14.5891 103.338 13.8406C103.126 13.0976 103.015 12.3221 103.015 11.514C103.015 10.7059 103.121 9.93034 103.338 9.18733C103.555 8.44431 103.856 7.75011 104.251 7.0993C104.646 6.44849 105.119 5.86818 105.665 5.33668C106.21 4.80518 106.811 4.36046 107.474 3.98082C108.131 3.6066 108.843 3.31373 109.6 3.10222C110.357 2.89613 111.142 2.78766 111.955 2.78766C112.962 2.78766 113.919 2.93952 114.816 3.2378C115.717 3.54152 116.513 3.94828 117.215 4.45808L117.198 4.44723C117.326 4.57197 117.449 4.68044 117.571 4.77264C117.693 4.86484 117.755 5.01127 117.755 5.20652C117.755 5.26075 117.755 5.32041 117.749 5.39091C117.744 5.46142 117.721 5.5265 117.677 5.59158L116.558 7.25116C116.374 7.51691 116.174 7.65249 115.957 7.65249C115.801 7.65249 115.628 7.57656 115.439 7.42471C114.977 7.04506 114.437 6.73593 113.814 6.4973C113.196 6.25867 112.561 6.13935 111.904 6.13935C111.198 6.13935 110.53 6.28578 109.906 6.57323C109.283 6.86067 108.737 7.25116 108.264 7.74469C107.791 8.23822 107.418 8.80768 107.145 9.4585C106.873 10.1093 106.733 10.7927 106.733 11.514C106.733 12.2353 106.873 12.9404 107.145 13.5857C107.418 14.2311 107.791 14.7952 108.259 15.2724C108.726 15.7497 109.277 16.1293 109.901 16.4059C110.524 16.6825 111.198 16.8235 111.904 16.8235C112.678 16.8235 113.346 16.6934 113.908 16.4331C114.471 16.1727 114.988 15.8582 115.45 15.4948L115.456 15.5111Z" fill="black"/>
<path d="M124.768 6.97453C124.997 6.69251 125.253 6.43218 125.548 6.18813C125.837 5.94949 126.171 5.7434 126.55 5.56443C126.928 5.38546 127.357 5.24987 127.841 5.15225C128.325 5.05463 128.865 5.00581 129.477 5.00581C130.507 5.00581 131.415 5.20106 132.205 5.58612C132.995 5.97119 133.658 6.49184 134.198 7.1535C134.732 7.81516 135.138 8.58529 135.417 9.47473C135.695 10.3588 135.834 11.3024 135.834 12.2895V18.982C135.834 19.302 135.756 19.5407 135.6 19.6979C135.445 19.8552 135.222 19.9366 134.932 19.9366H132.862C132.5 19.9366 132.255 19.8715 132.133 19.7359C132.01 19.6057 131.949 19.3671 131.949 19.0308V12.2841C131.949 11.8122 131.865 11.3567 131.698 10.9174C131.531 10.4726 131.286 10.0822 130.975 9.74048C130.663 9.39881 130.279 9.12763 129.834 8.91612C129.388 8.71003 128.893 8.60156 128.347 8.60156C127.93 8.60156 127.513 8.67749 127.095 8.83477C126.678 8.99205 126.299 9.21441 125.954 9.50727C125.609 9.80014 125.331 10.1581 125.113 10.5811C124.896 11.0041 124.78 11.4868 124.774 12.0292V18.5373C124.774 18.7054 124.763 18.8736 124.746 19.0417C124.729 19.2098 124.69 19.3617 124.629 19.4918C124.568 19.622 124.484 19.7305 124.379 19.8118C124.267 19.8932 124.128 19.9311 123.956 19.9311H121.707C121.406 19.9311 121.184 19.8606 121.045 19.725C120.905 19.5895 120.833 19.3888 120.833 19.1339V1.00873C120.833 0.780949 120.905 0.585705 121.05 0.439272C121.195 0.287415 121.406 0.211487 121.69 0.211487H123.939C124.151 0.211487 124.34 0.287415 124.512 0.444695C124.685 0.601975 124.774 0.780949 124.774 0.997887V6.97453H124.768Z" fill="black"/>
<path d="M148.124 10.5866C148.124 9.53444 147.618 9.00837 146.599 9.00837C146.46 9.00837 146.288 9.01922 146.082 9.04091C145.876 9.0626 145.737 9.01379 145.659 8.89448C145.531 8.72635 145.737 8.61246 146.271 8.5528C146.46 8.52026 146.644 8.50941 146.833 8.50941C147.74 8.50941 148.358 8.88905 148.687 9.65376C148.826 9.97374 148.898 10.3805 148.898 10.874C148.898 11.3676 148.681 11.9913 148.241 12.7343C147.473 14.0901 146.271 15.1043 144.629 15.7714C144.083 15.9992 143.516 16.1131 142.926 16.1131C142.336 16.1131 141.734 15.9667 141.105 15.6792C139.948 15.1477 139.141 14.2528 138.69 13.0055C138.517 12.5173 138.434 11.9045 138.434 11.1669C138.434 10.4293 138.645 9.49648 139.068 8.3684C140.037 6.16106 141.634 4.27912 143.855 2.72259C146.232 1.04675 148.453 0.206116 150.518 0.206116C152.271 0.206116 153.44 0.894893 154.036 2.2616C154.303 2.85818 154.437 3.57408 154.437 4.40929C154.437 4.68588 154.42 4.9679 154.392 5.25534C154.236 6.57867 153.83 8.09723 153.173 9.80562C153.062 10.0931 153.006 10.2883 153.006 10.3859C153.006 10.4835 153.028 10.5324 153.079 10.5324C153.156 10.5486 153.29 10.3859 153.479 10.0497C154.637 7.99419 155.912 6.15021 157.303 4.51776C157.754 3.98626 158.305 3.55238 158.945 3.21613C159.647 2.85276 160.276 2.66836 160.832 2.66836C161.389 2.66836 161.823 2.86903 162.146 3.26494C162.469 3.66085 162.625 4.18693 162.625 4.84316C162.625 6.38342 162.007 8.94871 160.771 12.5445C160.521 13.2604 160.365 13.7159 160.304 13.9166C161.573 11.9804 163.159 9.85443 165.079 7.52777C166.994 5.20653 168.698 3.82898 170.184 3.40053C170.451 3.3246 170.685 3.28663 170.891 3.28663C171.486 3.28663 171.87 3.57408 172.037 4.15438C172.099 4.35505 172.132 4.58284 172.132 4.84316C172.132 5.61872 171.82 6.61663 171.191 7.83691C169.911 10.3371 169.031 12.3221 168.564 13.8027C167.924 15.7551 167.601 17.0839 167.601 17.7998C167.601 18.5157 167.673 19.1123 167.812 19.5841C168.096 20.5278 168.837 20.9996 170.039 20.9996C170.1 20.9996 170.228 20.9996 170.429 20.9888C170.623 20.9779 170.735 21.0159 170.757 21.0918C170.779 21.1677 170.724 21.2382 170.596 21.2979C170.462 21.3576 170.328 21.3901 170.195 21.3901C170.061 21.3901 169.955 21.3793 169.878 21.3684C167.406 21.1243 166.17 19.8878 166.17 17.6642C166.17 16.8561 166.337 15.9395 166.677 14.9091C167.016 13.8786 167.3 13.0922 167.534 12.5445C167.907 11.6604 168.698 9.93036 169.905 7.35422C170.328 6.39427 170.54 5.6621 170.54 5.15772C170.54 4.65334 170.323 4.40386 169.883 4.40386C169.271 4.40386 168.325 5.01129 167.044 6.23157C166.388 6.87153 165.675 7.65251 164.912 8.57449C164.144 9.49648 163.014 11.1127 161.511 13.4176C160.009 15.728 159.057 17.3551 158.65 18.2987C158.289 19.1231 157.815 19.5353 157.22 19.5353C156.797 19.5353 156.546 19.3888 156.468 19.1014C156.424 18.9767 156.424 18.8845 156.468 18.814C156.513 18.7435 156.663 18.4886 156.914 18.0493C157.164 17.61 157.42 17.1435 157.687 16.6554C157.955 16.1673 158.272 15.5057 158.639 14.665C159.007 13.8244 159.346 12.9729 159.658 12.1052C160.409 9.95747 160.916 7.75013 161.183 5.47771C161.211 5.21738 161.228 4.8974 161.228 4.50691C161.228 4.11642 161.122 3.81271 160.91 3.5795C160.699 3.35171 160.476 3.23782 160.242 3.23782C159.474 3.23782 158.634 3.80186 157.71 4.92994C156.457 6.43766 155.372 7.91826 154.448 9.37716C153.524 10.8306 152.817 12.0563 152.327 13.0434C151.832 14.0359 151.264 15.2236 150.613 16.6229C149.961 18.0167 149.622 18.7597 149.577 18.8519C149.533 18.9441 149.483 19.058 149.416 19.1936C149.349 19.3292 149.288 19.4594 149.238 19.5841C149.032 20.0234 148.598 20.2458 147.924 20.2458C147.534 20.2458 147.323 20.1264 147.29 19.8824C147.29 19.839 147.295 19.7848 147.312 19.7251C148.342 18.1686 149.488 15.8148 150.735 12.6638C152.333 8.67212 153.129 5.75973 153.129 3.93202C153.129 1.7518 152.205 0.661685 150.362 0.661685C149.171 0.661685 147.674 1.2203 145.87 2.33211C144.061 3.44391 142.569 4.87028 141.378 6.60578C140.911 7.28914 140.56 7.95622 140.321 8.59619C139.914 9.76765 139.708 10.7005 139.708 11.3838C139.708 13.3471 140.382 14.6433 141.723 15.267C142.191 15.4948 142.67 15.6087 143.154 15.6087C144.84 15.6087 146.226 14.7193 147.306 12.9349C147.852 12.0347 148.13 11.2537 148.13 10.5812L148.124 10.5866Z" fill="black"/>
<path d="M167.284 25.9892C166.594 25.9892 166.065 25.8482 165.686 25.5661C165.308 25.2841 165.124 24.9479 165.124 24.552C165.124 24.156 165.241 23.7059 165.475 23.2015C165.881 22.426 166.616 21.7968 167.679 21.325C168.475 20.9616 169.533 20.62 170.846 20.3108C172.16 19.9963 173.006 19.7902 173.379 19.6817C173.941 18.7218 174.615 17.0079 175.394 14.5403C174.487 16.0968 173.73 17.1815 173.117 17.8106C172.505 18.4343 171.887 18.7489 171.264 18.7489C170.418 18.7489 169.928 18.4072 169.783 17.7184C169.533 16.6175 170.262 14.947 170.367 14.703L170.791 13.9057C171.319 12.9132 171.759 12.078 172.104 11.3893C172.26 11.0693 172.566 10.912 173.017 10.912H174.448C174.414 10.9445 174.336 11.0042 174.214 11.0964C173.93 11.2808 173.718 11.4923 173.579 11.7364C173.017 12.68 172.31 14.0305 171.47 15.7822C171.124 16.4981 170.952 17.0242 170.952 17.3605C170.952 17.6967 171.013 17.9299 171.13 18.0709C171.247 18.2119 171.408 18.277 171.609 18.277C171.904 18.277 172.321 17.9733 172.85 17.3605C173.958 16.0968 175.188 14.1064 176.535 11.3947C176.707 11.0747 177.014 10.9174 177.448 10.9174H178.717C178.311 11.194 177.988 11.5357 177.754 11.9587C177.52 12.3817 177.264 12.9458 176.991 13.6617C176.719 14.3776 176.373 15.3321 175.962 16.5198C175.55 17.7076 175.232 18.6024 175.01 19.1936C176.479 18.7651 177.604 18.0113 178.389 16.932C178.734 16.4602 179.223 15.6195 179.869 14.4155C179.98 14.204 180.075 14.1172 180.164 14.1661C180.253 14.2094 180.292 14.2745 180.292 14.3505C180.292 14.4264 180.164 14.7192 179.903 15.2291C179.641 15.7389 179.385 16.2107 179.118 16.6446C178.851 17.0784 178.505 17.5232 178.088 17.9787C177.67 18.4343 177.197 18.7977 176.68 19.0634C176.162 19.3292 175.477 19.6166 174.615 19.9203C173.412 22.0517 172.199 23.6245 170.98 24.6279C169.839 25.5444 168.603 26 167.273 26L167.284 25.9892ZM165.926 23.7276C165.753 24.0638 165.67 24.373 165.67 24.655C165.67 24.937 165.781 25.154 165.998 25.3058C166.215 25.4577 166.493 25.5336 166.822 25.5336C167.729 25.5336 168.698 25.078 169.733 24.1723C170.763 23.2666 171.67 22.2958 172.455 21.2599L172.972 20.4139C170.39 21.0701 168.764 21.5419 168.096 21.8294C167.094 22.2578 166.376 22.887 165.937 23.7276H165.926Z" fill="black"/>
<path d="M176.006 0.580309C176.006 0.401335 176.067 0.260325 176.184 0.15728C176.301 0.048811 176.451 0 176.635 0H190.979C191.14 0 191.291 0.048811 191.424 0.146433C191.558 0.244055 191.63 0.390488 191.647 0.585732V2.90697C191.647 3.08594 191.591 3.2378 191.474 3.37338C191.357 3.50897 191.196 3.57405 190.979 3.57405H185.797V19.1177C185.797 19.2749 185.741 19.4214 185.624 19.5461C185.513 19.6708 185.351 19.7305 185.157 19.7305H182.468C182.307 19.7305 182.156 19.6708 182.023 19.5569C181.889 19.4431 181.822 19.2966 181.822 19.1177V3.56863H176.629C176.445 3.56863 176.295 3.51439 176.178 3.4005C176.061 3.29203 176 3.12391 176 2.90154V0.580309H176.006Z" fill="black"/>
<path d="M206.459 18.2391C205.658 18.9007 204.784 19.4268 203.832 19.8065C202.88 20.1861 201.839 20.3759 200.704 20.3759C199.473 20.3759 198.31 20.1481 197.214 19.698C196.117 19.2478 195.148 18.6241 194.325 17.8377C193.495 17.0513 192.838 16.1239 192.354 15.0664C191.87 14.0088 191.625 12.8699 191.625 11.6442C191.625 10.8578 191.725 10.0931 191.926 9.36089C192.126 8.62873 192.41 7.93453 192.777 7.29456C193.145 6.65459 193.595 6.06344 194.119 5.52652C194.642 4.98959 195.232 4.53402 195.883 4.14896C196.534 3.7639 197.236 3.47103 197.998 3.26494C198.755 3.05885 199.557 2.95038 200.403 2.95038C201.093 2.95038 201.778 3.03173 202.446 3.19443C203.119 3.35714 203.76 3.59035 204.361 3.89406C204.967 4.19777 205.53 4.56114 206.058 4.98959C206.587 5.41805 207.049 5.90616 207.45 6.44308C207.995 7.18609 208.396 7.98876 208.652 8.84566C208.908 9.70257 209.036 10.6571 209.036 11.7038C209.036 11.9587 209.025 12.1757 209.003 12.3492C208.981 12.5228 208.925 12.6638 208.83 12.7668C208.736 12.8699 208.602 12.9512 208.424 13C208.24 13.0488 207.99 13.0705 207.661 13.0705H195.566C195.683 13.7105 195.911 14.2745 196.239 14.7626C196.573 15.2562 196.963 15.6684 197.42 16.01C197.876 16.3517 198.371 16.6066 198.906 16.7802C199.44 16.9537 199.98 17.0405 200.514 17.0405C200.921 17.0405 201.316 17.0025 201.694 16.9212C202.073 16.8398 202.424 16.7368 202.752 16.6012C203.08 16.4656 203.381 16.3138 203.659 16.1402C203.938 15.9667 204.183 15.7877 204.388 15.6033C204.388 15.5924 204.388 15.5924 204.4 15.5924C204.511 15.4948 204.611 15.4189 204.711 15.3592C204.812 15.2996 204.917 15.2725 205.023 15.2725C205.107 15.2725 205.196 15.2996 205.301 15.3538C205.407 15.408 205.507 15.4948 205.608 15.6196C205.852 15.9124 206.064 16.1565 206.237 16.3517C206.409 16.547 206.548 16.7097 206.66 16.8452C206.771 16.9808 206.849 17.0947 206.899 17.1923C206.949 17.29 206.971 17.3876 206.971 17.4852C206.971 17.7347 206.799 17.9788 206.454 18.2282L206.459 18.2391ZM200.403 6.25326C199.869 6.25326 199.345 6.34546 198.833 6.5407C198.321 6.73052 197.859 6.99085 197.436 7.31625C197.013 7.64166 196.646 8.02672 196.334 8.47145C196.022 8.91617 195.789 9.39343 195.644 9.90866H205.301C205.157 9.36632 204.934 8.87278 204.639 8.42806C204.344 7.98334 203.988 7.59827 203.57 7.27287C203.153 6.94746 202.674 6.69798 202.14 6.52443C201.605 6.34546 201.026 6.25868 200.409 6.25868L200.403 6.25326Z" fill="black"/>
<path d="M225.351 18.2391C224.55 18.9007 223.676 19.4268 222.724 19.8065C221.772 20.1861 220.731 20.3759 219.596 20.3759C218.366 20.3759 217.202 20.1481 216.106 19.698C215.009 19.2478 214.041 18.6241 213.217 17.8377C212.387 17.0513 211.731 16.1239 211.246 15.0664C210.762 14.0088 210.517 12.8699 210.517 11.6442C210.517 10.8578 210.617 10.0931 210.818 9.36089C211.018 8.62873 211.302 7.93453 211.669 7.29456C212.037 6.65459 212.488 6.06344 213.011 5.52652C213.534 4.98959 214.124 4.53402 214.775 4.14896C215.427 3.7639 216.128 3.47103 216.89 3.26494C217.647 3.05885 218.449 2.95038 219.295 2.95038C219.985 2.95038 220.67 3.03173 221.338 3.19443C222.011 3.35714 222.652 3.59035 223.253 3.89406C223.859 4.19777 224.422 4.56114 224.95 4.98959C225.479 5.41805 225.941 5.90616 226.342 6.44308C226.888 7.18609 227.288 7.98876 227.544 8.84566C227.8 9.70257 227.928 10.6571 227.928 11.7038C227.928 11.9587 227.917 12.1757 227.895 12.3492C227.873 12.5228 227.817 12.6638 227.722 12.7668C227.628 12.8699 227.494 12.9512 227.316 13C227.132 13.0488 226.882 13.0705 226.554 13.0705H214.458C214.575 13.7105 214.803 14.2745 215.132 14.7626C215.466 15.2562 215.855 15.6684 216.312 16.01C216.768 16.3517 217.263 16.6066 217.798 16.7802C218.332 16.9537 218.872 17.0405 219.406 17.0405C219.813 17.0405 220.208 17.0025 220.587 16.9212C220.965 16.8398 221.316 16.7368 221.644 16.6012C221.973 16.4656 222.273 16.3138 222.551 16.1402C222.83 15.9667 223.075 15.7877 223.281 15.6033C223.281 15.5924 223.281 15.5924 223.292 15.5924C223.403 15.4948 223.503 15.4189 223.603 15.3592C223.704 15.2996 223.809 15.2725 223.915 15.2725C223.999 15.2725 224.088 15.2996 224.193 15.3538C224.299 15.408 224.399 15.4948 224.5 15.6196C224.745 15.9124 224.956 16.1565 225.129 16.3517C225.301 16.547 225.44 16.7097 225.552 16.8452C225.663 16.9808 225.741 17.0947 225.791 17.1923C225.841 17.29 225.863 17.3876 225.863 17.4852C225.863 17.7347 225.691 17.9788 225.346 18.2282L225.351 18.2391ZM219.295 6.25326C218.761 6.25326 218.238 6.34546 217.725 6.5407C217.213 6.73052 216.751 6.99085 216.328 7.31625C215.905 7.64166 215.538 8.02672 215.226 8.47145C214.914 8.91617 214.681 9.39343 214.536 9.90866H224.193C224.049 9.36632 223.826 8.87278 223.531 8.42806C223.236 7.98334 222.88 7.59827 222.462 7.27287C222.045 6.94746 221.566 6.69798 221.032 6.52443C220.497 6.34546 219.919 6.25868 219.301 6.25868L219.295 6.25326Z" fill="black"/>
<path d="M231.92 15.343C232.109 15.6358 232.354 15.8853 232.643 16.1022C232.933 16.3138 233.233 16.4873 233.534 16.6283C233.84 16.7639 234.129 16.8669 234.408 16.9266C234.686 16.9917 234.903 17.0188 235.07 17.0188C235.326 17.0188 235.627 16.9917 235.972 16.9374C236.317 16.8832 236.64 16.791 236.946 16.65C237.252 16.5144 237.508 16.3246 237.725 16.0914C237.937 15.8582 238.048 15.5599 238.048 15.1965C238.048 14.8332 237.965 14.5566 237.798 14.3342C237.631 14.1118 237.402 13.9274 237.113 13.781C236.823 13.6346 236.501 13.5153 236.133 13.4176C235.766 13.32 235.376 13.2115 234.97 13.0976C234.013 12.8482 233.2 12.5499 232.526 12.2028C231.853 11.8503 231.302 11.4543 230.868 10.9988C230.433 10.5486 230.122 10.0497 229.921 9.51275C229.721 8.97583 229.621 8.38467 229.621 7.74471C229.621 7.02881 229.765 6.37257 230.055 5.78142C230.344 5.19026 230.756 4.68046 231.285 4.25201C231.814 3.82898 232.448 3.49815 233.189 3.26494C233.929 3.03173 234.747 2.91241 235.649 2.91241C236.284 2.91241 236.851 2.96665 237.352 3.08054C237.853 3.19443 238.315 3.35714 238.744 3.5795C239.172 3.80186 239.573 4.07846 239.952 4.41471C240.33 4.75096 240.714 5.14687 241.104 5.59702C241.243 5.7543 241.31 5.91158 241.31 6.06344C241.31 6.22072 241.221 6.37257 241.037 6.51358C240.898 6.62205 240.737 6.75222 240.553 6.9095C240.369 7.06677 240.18 7.22405 240.002 7.37591C239.818 7.52777 239.646 7.65251 239.484 7.76098C239.323 7.86945 239.184 7.91826 239.072 7.91826C238.872 7.91826 238.677 7.80436 238.488 7.57116C238.287 7.34337 238.087 7.13728 237.887 6.96915C237.686 6.7956 237.475 6.65459 237.258 6.54612C237.041 6.43766 236.801 6.35088 236.551 6.29665C236.295 6.23699 236.016 6.20987 235.716 6.20987C235.471 6.20987 235.215 6.24783 234.948 6.31834C234.68 6.38884 234.436 6.49731 234.213 6.63832C233.99 6.77933 233.807 6.95288 233.656 7.14813C233.506 7.34879 233.434 7.57116 233.434 7.82063C233.434 8.10265 233.528 8.34671 233.712 8.54738C233.896 8.74804 234.135 8.92159 234.419 9.06803C234.703 9.21446 235.014 9.33378 235.354 9.4314C235.694 9.52902 236.005 9.6158 236.295 9.69715C237.13 9.92493 237.898 10.1907 238.594 10.4944C239.289 10.7981 239.896 11.1615 240.397 11.5899C240.904 12.0184 241.293 12.5228 241.577 13.1031C241.855 13.6834 242 14.3613 242 15.1423C242 15.9667 241.833 16.7042 241.499 17.3551C241.165 18.0059 240.698 18.5591 240.108 19.0092C239.518 19.4594 238.811 19.8065 237.998 20.0451C237.185 20.2837 236.3 20.403 235.348 20.403C234.775 20.403 234.196 20.3434 233.601 20.2241C233.011 20.1047 232.443 19.9203 231.903 19.6654C231.363 19.4105 230.862 19.0906 230.406 18.6946C229.944 18.2987 229.559 17.8323 229.253 17.2954C229.114 17.073 229.047 16.8724 229.047 16.6988C229.047 16.5849 229.075 16.4819 229.136 16.4005C229.198 16.3192 229.276 16.2324 229.376 16.1565L230.901 15.0121C231.04 14.9308 231.163 14.8928 231.268 14.8928C231.396 14.8928 231.508 14.9362 231.608 15.0175C231.708 15.0989 231.819 15.2128 231.936 15.3538L231.92 15.343Z" fill="black"/>
<path d="M39.1812 12.7906C39.1812 18.4093 34.4889 22.9759 28.7278 22.9759C25.2377 22.9759 22.0204 21.3 20.0889 18.5286L20.2447 18.4202C20.9238 17.9429 21.653 17.4548 22.4211 16.945C23.8294 18.9734 26.1728 20.2045 28.7278 20.2045C32.9247 20.2045 36.3424 16.8799 36.3424 12.7852C36.3424 8.69051 32.9303 5.36593 28.7278 5.36593C26.3788 5.36593 24.0632 6.98212 20.8626 9.222L20.601 9.4064C19.4265 10.2253 18.1351 11.0768 16.7658 11.9771C16.3762 12.232 15.9754 12.4978 15.569 12.7635L16.3817 13.9024L10.7319 14.3526L13.1533 9.35759L13.9492 10.4802C14.3667 10.2091 14.7731 9.9379 15.1683 9.67757C15.7138 9.31963 16.2481 8.9671 16.7658 8.62542C17.5339 8.12104 18.2631 7.62751 18.9422 7.15025L19.0981 7.04178L19.1983 6.97127C22.6939 4.53072 25.4603 2.59998 28.7222 2.59998C34.4889 2.59998 39.1757 7.17194 39.1757 12.7906H39.1812Z" fill="#FF9719"/>
<path d="M28.4549 11.2178L26.028 16.2128L25.232 15.0902C24.8145 15.3668 24.4026 15.6325 24.0018 15.8983C23.4619 16.2562 22.9275 16.6033 22.4155 16.945C21.6473 17.4548 20.9181 17.9429 20.239 18.4202L20.0832 18.5286L19.983 18.5991C16.4818 21.0451 13.7209 22.9759 10.4591 22.9759C4.69238 22.9759 0 18.4039 0 12.7906C0 7.17736 4.69238 2.59998 10.4591 2.59998C13.9436 2.59998 17.1609 4.28124 19.0979 7.0472L18.9421 7.15567C18.263 7.63293 17.5338 8.12104 16.7657 8.63085C15.3574 6.60248 13.0029 5.37136 10.4591 5.37136C6.26208 5.37136 2.84437 8.69593 2.84437 12.7906C2.84437 16.8853 6.25651 20.2099 10.4591 20.2099C12.808 20.2099 15.1236 18.5937 18.3298 16.3484L18.5858 16.1694C19.7603 15.3505 21.0517 14.499 22.4155 13.5987C22.8107 13.3384 23.2059 13.0781 23.6178 12.8069L22.8051 11.668L28.4549 11.2178Z" fill="#00A6AC"/>
</svg>
